<?xml version="1.0" encoding="UTF-8"?>
<svg xmlns="http://www.w3.org/2000/svg" viewBox="0 0 494.8 426.5">
  <g id="bottom">
    <path d="M232.8,304l.4-1.2c.5,2.8,4.9,3,5.4,6.2-3.3.4-4.2-3.6-7.3-3.5-.2,1.9,2,2.2,3.1,3.3.6,1.3-2.8,0-3.1.2,0,2.7,3.1,1.1,4.6,2.5-3.2,2.5-6.5.3-5.8-3.6l-1.9-.4.2,1.5c-.6-1.7-1.5-.8-2.2-1.2s-2-1.4-2-1.5c-.6-1.3,2.6-3.4,2.1-5.2-.2-.7-4.4-.9-3.8-2.9,1.6.4,4.7.3,5.3,2.2s0,4.6,1.4,4.3c2.6-.6-1.1-9.6.8-9.6l2,5.2c.1,1.3-1.7,3.2.9,3.6Z" fill="#282752"/>
    <path d="M145.9,278.7c.7.7,6.3-2.4,3.1-3.1l.6-.8c.7.8,2.3.6,2.8.9.8.4,3.3,6.7,2.8,7.2-1.4.3-1.4-.9-2.1-1.5-1.1-1-1.9-1.5-2.7-3.1-1-.3-3.8,3.4-5.6,2.1s1.9-5.1,1.2-6.8c-1.8.3-3.9,1.1-5.7.3-.4-3.2,1.7-3,3.8-3.6s1.5-1.4,3.2-.5c2.7,1.4-1.1,6.4-1.3,8.8ZM146.6,270.6c-2.2,0-3.8,1.1-5.4,2.5,0,1.4,4.3-.8,4.7-1,.7-.5.8-.6.7-1.5Z" fill="#282752"/>
    <path d="M172.8,316.7c2-.1,10.7-.6,11.1-2.9s-1.3-2.8.2-3.2,2,2.4,2.2,2.8c.9,1.8,1,3,.3,4.9l-1.5-.4.4-2.1c-1.2-1.7-1.4,0-2,.2-1,.5-4.2,1.6-5.2,1.7s-5.3.4-5.9.3-2.4-1.1-1.9-1.8c1.1.1,6.5-3.5,5.8-4.6-1.8-1.9-8.9,1.5-6.7-2.3,2.4.3,5.8-.3,7.8,1.4s-3.5,4.4-4.6,5.9Z" fill="#282752"/>
    <path d="M64.7,241.7c.1.2,2.9,1.1,3.5,1s2.3-1.2,2.3-1.6l-1.1-1.7h1.5s0,1.1,0,1.1l1.1.3v4.8c0,0-1.1,0-1.1,0,0-.9.3-3.1-.6-3.5-.6,1.7-4.4,2.3-5.5,1.1s.4-1.1-.6-1.1-1.6.3-1.4.9,4.9,3.8,2.3,5-9.3-.5-12.3-1c-.2-1.7,2.6,0,3.7,0s7.6.3,7.9,0l-3.8-4.4,3.3-1.7c.5-3-3.7-1.9-5.4-2.7l-.6,1.4-2.3.2c.9-2.6,5.8-2.7,8.1-1.7s.9,3.3,1.2,3.6Z" fill="#282752"/>
    <path d="M211.3,230.6c-.2,3.5-1.7,8,3.6,6.1.9-.3.3-2.9,1.6-2.7.7.4.4,1.3.7,1.8s1.6.8,2,1.7,1.3,4.6,1,5c-1.8,0-2.6-5.3-3.6-5.3-1.5,1-3,2.1-4.8,1.1-.7.8,3.8,4,5,3.5l-.6,1.1c-5.6-1.1-7.5-5-6.1-10.3s.5-2.2,1.3-1.9Z" fill="#282752"/>
    <path d="M318.6,236c-1.6,1.7-3.7,2.2-3.8,5,.8.5,4.8-1.7,4.9-2,.4-.7-.5-2.6.8-3l1.6,4.2c.5,0,1-.3,1.6-.2,2.7.4,4,5.4,0,2.8l.4-1.3-.8-.2-.2.8c-1.9-1.1-1.7,1.7-3.6,1.5l.8-4.2c-2.4.8-3.9,4.3-6.8,2.7l1.4-4.6c-.1-.1-4.4.3-3.1-.8l6.9-.8Z" fill="#282752"/>
    <path d="M328.1,224.5c.5.5,1.7,4.3,1.9,5.2,1.2,5.9.9,11.7,2.4,18s.7,1.4-.2,1.3c-1.5-.1-2.3-5.8-2.5-7.1-.3-2.3-.3-5.4-.6-7.5s-1-6.7-1.8-8.2c-1.5-2.6-2.9.7-4.9.5,1-1.4,4.1-3.7,5.7-2.2Z" fill="#282752"/>
    <path d="M75.1,284v-1.2c2.7.9,6-.7,8.4-.7s2,1.2,2.6.3-1.5-3.2-1.4-4.6h-.6c-3.9,3.2-4.7.4-6.6-2.3s-3.1-2.9-.8-2.3,2.4,5,5,4.6,1.8-1.1,2-1.5-.6-.9-.4-1.6,1.2-1.6,1.8-1.9c-.7,4.2,2.7,6.5,2.5,10.4l-12.5.7Z" fill="#282752"/>
    <path d="M105.1,280.5c.5.7,2.9-.7,3.4,2.6s-.2,7.7-3.3,8.2-1.1-.3-1.7-.2c-3.2.4-6.4,1.3-9.1-1.1,1.8-.2,3.7,1,5.6,1s2.9-.7,4.3-1.1.8.3,1,.2,1.7-2.3,1.9-2.8c.6-2,.2-3.3,0-5.3l-2.9-.4c-.5-3,.3-6-.9-8.9l-1.5.4,1.7-1.9c.5-.1.7.3.9.7,1,2.1,1.4,6.2.9,8.5Z" fill="#282752"/>
    <path d="M241.3,233.3c0,.7,0,1.3.2,1.9s2.7,3.4,3.3,3.7,1.2-.3,1.7-.2,1,1.9,2.6,1.2c.5-2.1-2.2-2-2.3-4.2l-1.9.4,1.3-1.5c1.3,1.4,5.4,3.3,3.7,5.5l-3.1.9c-.4.3,2.6,1.7,3,1.8.9.3,4.7.5,4.7,1.1-1.3,1.4-3.8.6-5.4,0-4.6-1.6-5.9-5-9.1-8.3-.6-1,.1-2.3,1.3-2.3Z" fill="#282752"/>
    <path d="M192.4,242.1c.3.2,3.3-3,4-3.1,1.3,0,2.8,1.5,3.1,2.7s-1.8,2.9-2.5,1.9,1-1,.8-2.1c-.8-3.3-4.7,1.6-5.2,2.9-2.2-.5-1-3.2-2.7-4.2l-4.2,3.8c-1.3-1-.7-4.3.4-5s6.8.4,6.4,3.1Z" fill="#282752"/>
    <path d="M435.9,231.7c-.4,2.2-4.1,1.2-5,3.5,2.5.4,4.7,1.9,7.3,1.5-1.1,2.9,1.8,5.2,4.6,3.8l-.4-3.2c3-.8,1.5,3.9,0,4.6s-4.5-.3-5.5-1.8-.3-1.7-1.2-2.2-2.7-.4-4-1c-6.3-2.8,3.4-5.9,4.2-5.2Z" fill="#282752"/>
    <path d="M209.6,307.4c-.4.4-1.3.6-1.4,1.3,1,0,5.1-.9,5.3-1.8l-.3-1.7h1.5c-.9,2.8,2.5,5.1,1.5,8.1l-1.5-.4c0-1.5-.2-2.9-1.1-4.2-1.8-.5-6,2.5-7.1,1.8-.7-.6-.3-.7,0-1.2.6-1,1-1.7,1.5-2.6s1.7-.6,1.2-2.2c-.2-.2-3.9.3-4.2-1.2,1.5-.6,5.9-.1,5.7,2.1-.3.7-.7,1.5-1.2,2Z" fill="#282752"/>
    <path d="M266.3,306.7c.2-.7,1-1.3,1-2,.1-2.5-1.3-6.7-1.8-9.4s0-4.2-.4-5.7-1.8-.8.2-2.6l.9,1c-.1,3.8,3.6,14.6,1.9,17.6s-1.1,1.1-1.8,1Z" fill="#282752"/>
    <path d="M120.5,281c0,0-.2,1-.6,1.1l-.6-1.9c1.4.5,2.7-.7,3.7-.8,2-.1,2.8,1.7,1.3-1.9-.4-.3-3.2,1.8-5,.2s-2.3-3.7-2.3-3.9c-.2-1.4,1.6-1.9,2.1-.9s-.2,3.6,2.1,4.1,3.7-3,4.7-2.2c-1.8,2.2.9,3.9,1.2,6.2-1.1.2-6-.3-6.5,0Z" fill="#282752"/>
    <path d="M370.8,233.3c1.6,1.5-1.2,3.1-1.4,4-.5,1.8,5,3.9,6.3,4.3s5.9.6,3.6,2.2-10.1-3.1-10.9-4.5c-1.7-2.6,1.5-4,1.3-4.8-.4-.7-3.1-.6-3.1-1.5s3.7-.2,4.1.3Z" fill="#282752"/>
    <path d="M55.5,289.8c-.9.1-1.3-1-1.6-1.7-1.7-4-3.3-15.6-7.4-17.2s-2.4-.4-3.7-.4c5.4-4.3,8.3,3.9,9.5,8s.8,4.9,1.4,7,1.3,2.8,1.7,4.2Z" fill="#282752"/>
    <path d="M432.5,241c.1.8,0,.6-.5.9-1.7.8-1.2-.2-1.9-.6-2.7-1.7-5.6-4.2-8.2-5.7s-1.7.3-1.7-.9l1.2-3.7-2.3.8v-1.1s3.1-.6,3.1-.6c.7.5.2,2.5.5,3.4.5,2.4,6.5,4.7,8,7l1.9.6Z" fill="#282752"/>
    <path d="M179.7,242.1c.4-1.1.4-1.9-.6-2.7-.4,1.4-6,4.7-6.3,2.9.3-1.8,4.9-7.5,6.7-5.6s.7,1.6,1.2,2.3c1.2,1.8,3.5,2.5-1,3.1ZM178.2,238.6c-1.9-.3-2.6,1.4-3.5,2.7.1.1,2.6-1.2,3-1.4.7-.4.5-.4.5-1.3Z" fill="#282752"/>
    <path d="M40.1,281c.9.9-5.4,4.9-2.9,5.4s1.3-1,1.8-1.2,1.5-.3,2.3-.8,1.6-1.9,2.6-1.3c-1,1.3-2.2,1.9-3.7,2.5l-2.5,2.5c.5,1.4,3.5,1.8,4.8,1.8s3-1.4,3.7,0c-2.4.9-4.9,1.3-7.4.7s-1.5-1.6-2.2-2.8-1.6-.3-1-2.2,3.6-5.5,4.5-4.5Z" fill="#282752"/>
    <path d="M294.9,241.6c1.3,1.8,2.3,3.3,4.8,2.9-.3,2.2-3.2,1-4.3,0-2-1.6-1.2-4.3-4.6-2l-1.8-1.3c.1-2.3,2.9-1.5,4.5-2.1.1-2.1,1.2-4.3-.3-6.1,3.5,0,1,5.1.5,7.1.4.5.8,1,1.2,1.6Z" fill="#282752"/>
    <path d="M245.1,307.5c.7-1.6,1.5-2.7,1.1-4.6l-.8.4.4-1.9c-1.7,2.2-3.4,3.8-6.4,2.8s-1.7-4.2.7-4.1c-3.4,5.2,5.5,2.6,5.4.4-1.2-.3-.4-.6-.6-1.3s-1-1.4-.9-2.3c.3-.3,2.3,1.8,2.5,2,1,1.4,1.6,8.5-1.3,8.8Z" fill="#282752"/>
    <path d="M17.4,289c2.8.4,4.9-.7,7.5-1.5l4.6-3.1c1.4.5,1.9,5.5,2.5,6.9h-1.5c0,0-1.4-5-1.4-5-2-.3-2.7,1.3-3.9,1.9-3.2,1.6-7,2.7-10.5,2,2.1-2.3,4.7-4,6.1-6.8,0-.4-3-2.5-3.4-2.6-.6-.2-1,.2-1.5.2-.2-1,.2-.8,1-.8,1.2,0,5.1,1.4,5.2,2.9-.2.9-.8,1.8-1.4,2.5s-3.7,3.1-3.2,3.5Z" fill="#282752"/>
    <path d="M356,237.8c1.3,1.5,2.7-1,4.3-1.1,3.8-.1,1.4,5.5-.4,7l-1-.6c.4-1.9,2.3-3.2,1.9-5.2-3.3,0-3.1,1.4-4,3.8-1.1-.9-1.6-2.4-1.7-3.8l-3.1,1.2c.5-1.4,2.6-1.2,2.7-2.7l.8.2c.3.3.3,1,.5,1.2Z" fill="#282752"/>
    <path d="M107.1,238.6c.2.3,2.1,1.3,1.9,2.8l1.9-1.2c.3.3-1.1,3.4-1.5,3.7s-.9-.2-1.3,0c-1.7.5-4.7,1.7-4.9-1.5s2-3.8,3.3-5.6c1.6.1.3,1.3.6,1.9ZM104.8,243.2c.8.8,2.8.5,3.3-.5,0-1.3-.7-2.5-1.7-3.2-1-.2-2.6,2.7-1.6,3.7Z" fill="#282752"/>
    <path d="M183.2,278.1c0,.1-.6.7-.8.6-.6-2.3-.3-4.5-1-6.9s-3.7-6.5-3.6-8.3h1.5c0-.1,3.9,8.8,3.9,8.8-.3,1.6.4,4.3,0,5.8Z" fill="#282752"/>
    <path d="M279,239.8c-1.9,0-4.4,0-6.1,1s-.5,0-.5.7c0,3.4,5.3,2,7,3.7-2.5,1.1-10.2-.8-7.9-4.6s4.8-2.9,5.1-3c1.7-.5,1.6,1.2,2.4,2.2Z" fill="#282752"/>
    <path d="M200.8,310.5c-1,1.4-4.8,2.5-5.6.6s1-1.7,2.2-1.7v1.5c1.3.1,2.5-1,2.3-2.4-.5-2.8-3.4-1.5-5.3-1.6,2.1-4.2,8.9,0,6.4,3.5Z" fill="#282752"/>
    <path d="M168.6,276c-3,0-5.2,1.4-7.9,2.7-.3-1.7-2.3-1.9-2.1-3.5.9-.2,1.4.7,2.1.8s1.2-.4,1.8-.3c1.2.1,1.4,1,3.3-.1-1.8-8.1,3.1-.1,2.7.4Z" fill="#282752"/>
    <path d="M99.5,275.1c0,.2.7,0,.6.7s-1.7,4.7-2.7,3.7c.9-3.1,1.2-7.2-3.2-6.5s-2.6,1.4-4.1,1.1c-.3-3,1.7-1.6,3.3-1.7s1-.5,1.6-.6c3-.2,3.4,1.2,4.6,3.3Z" fill="#282752"/>
    <path d="M130.8,234.8c.3.8.8,1.7,1.4,2.3s4.2,2.7,2.9,3.6c-2.1,1-5.6.6-5.8-2.1l2.3-.4c-.7-1.7-4.2-3-.8-3.4Z" fill="#282752"/>
    <path d="M396.3,234c-5-.6-6.6-5.4-8.9-9s-1.3-.8-1.6-1.8c-.6-1.6.8-2.1,1.7-.9,1.5,2.6,2.8,5.7,4.7,8s2.8,2.4,4.2,3.6Z" fill="#282752"/>
    <path d="M175.5,233.3l-1-4.2c-1.1-1.8-3-2.2-4.9-1.5s-.5,1-.9,1.1c-.8.2-1.4-.1-2.6.4-2.8,1.4-2.3,4.1-4.9,5.3,1.6-6.9,16.1-13.4,14.2-1.2Z" fill="#282752"/>
    <path d="M167.3,237.2c.9.5,1.5,7,2,8.4h-1.5s-1.4-7.3-1.4-7.3c-.5-.7-3.4.2-4.1-2.1.4-1.8,2.7.6,3.4.9s1.2,0,1.6.2Z" fill="#282752"/>
    <path d="M429.8,222.1l.2,3.5,2,1.9,7.1,3.9-2.4.4c-.9-2.1-3.8-2.2-5.5-3.3s-4.7-6.7-1.3-6.4Z" fill="#282752"/>
    <path d="M187,305.6c-1.1,0-1.5-1.2-2.3-1.7-2.7-1.7-7-2.7-10-3.4l-2.2-1,1.3-.8c4.7,1.2,10.2,3,13.3,6.9Z" fill="#282752"/>
    <path d="M114.8,230c1.8,1.4,3.9,2.1,5.6,3.6-4.8-.5-8.3-3.9-11.2-7.5.6-.8.9-.4,1.5,0,1.3.9,2.8,2.9,4,3.9Z" fill="#282752"/>
    <path d="M251.7,294.8c-.5,1.7,1.4,3.1,1.5,5.2s-1.2,5.6-3.4,6.3c1.3-2.5,3-5.1,1.6-8s-2-1.7-1.6-3.6h1.9Z" fill="#282752"/>
    <path d="M389.7,232.2c1,.8,5.1,8.2,4.3,9.1-.9.2-.8-.5-1.2-.9-1.8-2.7-2.7-6.2-5.4-8.1-.5-1,1.7-.5,2.2,0Z" fill="#282752"/>
    <path d="M248.6,249c.2,2.6,4.2,2.1,5.4,4.6-1.1.6-3.6-.7-4-.6s-.6.6-.8.6c-.3,0-1.5-2.8-2.9-2.3-.2-.6,0-.5.3-.8s1.8-1.8,2.1-1.5Z" fill="#282752"/>
    <path d="M91.2,246.7c-1,.2-.7-.2-.9-.8-.8-1.6-1-3.5-1.8-5.1s-2.4-2.1-3-3.7c4.8.8,5.2,5.5,5.8,9.6Z" fill="#282752"/>
    <path d="M447.1,227.5c-2.8.7-3.3-2.8-3-5,.8-.2,2,0,1.9-1.2.5,0,1.1,1.8,1.2,2.1,0,.8-.6,1.1-.6,1.5,0,.6.8,1.7.6,2.5Z" fill="#282752"/>
    <path d="M282.4,244.8c-3.7-.7-1.5-6.5-3.3-9.2h-1.7c-.7-.6,1.7-2.4,3.2.5s.4,4.1.8,6.1,1.1,1.6,1.1,2.6Z" fill="#282752"/>
    <path d="M310.3,237.7c0,.1.6,0,.7.7,0,1.3-.4,4.8-2.1,4.4-1.1-.3.6-3.3.5-4.4s-3-2.6-.3-4.5c-.1,1.4.7,2.6,1.3,3.7Z" fill="#282752"/>
    <path d="M145.5,245.6c-1.8-1.4-2.5-3.7-3.5-5.5s-3-3-1.7-4.1c2.8,2.4,4.5,6,5.2,9.6Z" fill="#282752"/>
    <path d="M190.1,316.7c-.2-.2,0-1.4-.1-2-.7-2.2-2.7-3.9-1.4-6.4.4-.3,4.1,7.4,2.9,8.5-.2.5-1.3,0-1.3,0Z" fill="#282752"/>
    <path d="M120.5,235.2c.6.5-.7.8-.8,1.3-.5,1.3,0,3.6,1,4.5s1.7.3,2.1,1-.7.9-1,.8c-1.6,0-3.7-2.6-3.9-4s1.6-4.4,2.6-3.6Z" fill="#282752"/>
    <path d="M136.6,279.4c-.6,0-.9,0-1.3-.4s-2.1-5.4-2.3-6.1-.3-1-.2-1.5c1.2-.2,1.3.3,1.7,1.1s2.4,6.7,2.1,6.9Z" fill="#282752"/>
    <path d="M159.7,264.8l-2.8-2.6c-2,1-3.9,1.8-5.4,3.4s-.7,1.6-1.4,1.9c.5-4,9.5-10.1,9.6-2.7Z" fill="#282752"/>
    <path d="M384,234.4l-1.6,4.5.8.8,3.2.8c-1.7.5-3.2.4-4.9,0-1.3-2.4.1-5.2,2.6-6.1Z" fill="#282752"/>
    <path d="M352.5,235.2c.1,1.5-4.6,4.3-3.8,5.4.5-.1,2.4-1.4,2.7-.4-1.4.8-2.5,1.7-4.2,1.2-.9-1.3,4.5-6.9,5.4-6.1Z" fill="#282752"/>
    <path d="M303.6,235.2l-3.5,5.2h3.1c-7.2,4.7-3.7-4.2.4-5.2Z" fill="#282752"/>
    <path d="M171.6,270.3c.4.6.5,3.3,1.2,4.4s1.9,1,1,1.6-.9.4-1.1.4c-1.4,0-2.9-5.5-2.1-6.9,0,0,1,.4,1.1.5Z" fill="#282752"/>
    <path d="M80.9,241.3l4.2-1.5c-1.3,5.3-8.2,1.5-4.8-2.7l.6,4.2Z" fill="#282752"/>
    <path d="M260.9,234.8c-.2,1.3-.5,2.2-.3,3.6s1.7,2.5,1.8,4.1h-1.5c-.5-.3-1.3-3.7-1.6-4.3s-1.3-.3-.7-1,.5,0,.8-.3c.5-.7.4-2.3,1.5-2Z" fill="#282752"/>
    <path d="M232.8,290.6l-2.7-1.5c0,1.5-1.3,1.8-1,3.5l-1.3-1.7.8-2.9c1.7-.1,3.8.8,4.2,2.7Z" fill="#282752"/>
    <path d="M112.7,238.7c-.3-.2-1,.1-1.1-.3.6-1.6,1.5-.8,2.2,0s2.1,3.2,2.2,3.6c.2.7.1.7-.4,1.2-1.7-.3-2.3-4-3-4.5Z" fill="#282752"/>
    <path d="M77,244.4c-4-.4-2.9-4.2-1.9-6.9.7,0,.4.9.4,1.3,0,2.4-.5,3.8,1.5,5.6Z" fill="#282752"/>
    <path d="M260.5,232.9c-2.3.5-4.8-1.9-4.2-4.2.7-.8,2.5,3.1,2.7,3.3.4.4,1.4.2,1.5,1Z" fill="#282752"/>
    <path d="M201.4,237c.1.2,3.8,2.7,1.6,3.2s-2.9-4.1-2.9-4.4.7-.8,1-.2c.2.4,0,1.1.3,1.4Z" fill="#282752"/>
    <path d="M42.8,272.1c-1.9,1,2,4.2.2,4.6s-3-4.5-.2-4.6Z" fill="#282752"/>
    <path d="M275.5,251.3c-.8,1.4-2.9,1.9-4.4,1.5s-.6-1.3-1.8-.8c-.2-1.6,2.4-.4,3.3-.4s1.9-.5,2.9-.4Z" fill="#282752"/>
    <path d="M254.3,238.7l.8,1.2c-.8.9-1.1,1.5-2.3,1-.3-.8.5-2.6,1.5-2.2Z" fill="#282752"/>
    <path d="M64.7,353.2c0-1.4,1.7-.5,2.7-.3.1,1,0,.6-.6.8-1.6.5-5,0-4.4-2.3l1.7,1.9h.5Z" fill="#282752"/>
    <path d="M146.6,270.6c.1.9,0,1-.7,1.5s-4.8,2.4-4.7,1c1.6-1.4,3.2-2.5,5.4-2.5Z" fill="#282752"/>
    <path d="M178.2,238.6c0,.9.2.8-.5,1.3s-2.9,1.5-3,1.4c.9-1.3,1.6-3,3.5-2.7Z" fill="#282752"/>
    <path d="M104.8,243.2c-1.1-1,.6-3.9,1.6-3.7,1.1.7,1.8,1.9,1.7,3.2-.6,1.1-2.5,1.3-3.3.5Z" fill="#282752"/>
  </g>
  <g id="body">
    <path d="M104.2,169.9c.9,1.1,0,3.9-.3,5.3l5.9,1.1c1.5-1.5,9.1-5.9,10.8-5.7s1.4,3.9,1.9,4.7,2.3.3,2.5,1.5c-1,0-2.1.1-3.1-.2s-1-1.3-1.3-1.4-1.2.8-1.7.9c-1.7.5-6.5,2.3-7.9,2.2s-1.2-1.2-2-1.5-7.4-1.2-7.4.1c.9.7,1.9,2.3,2.9,2.8s2.1.2,2.8,1c-4,1.3-5.8-2.9-8.8-4.2l-.4-1.2.6-1c1-.2,1.9,1.8,2.9,1.4s2-2.9,1.9-3.9c0-1.5-2.3-1.6-2.3-2.9.7-.1,2.6.4,3,.9ZM110.9,177.1c1.5.5,9.2-1.4,9.2-2.9-.5-.5-1-1.3-1.7-1.3s-4.2,1.1-4.5,1.2c-.9.4-1.5,1.7-2.7,1.8l-.2,1.2Z" fill="#282752"/>
    <path d="M266.5,179.4c1.7.3.7,1.7-.5,1.9s-1.2-.6-1.9-.7c-2.4-.3-8.6.5-9-2.9s.6-.8,1-.6.5,1,.6,1.1c.7.5,4.6-2.8,3.7-4.1-4.9-1.6-4.7-3.8-1.1-6.9-1.3-3-3.1-3.7-2.3-7.6s2-2.5,2.3-2.7c2.7-1.9,4.7-.5,5.4,2.5-1.5.4-1.3-1.3-2.3-1.7-2.6-1.2-2.1,2.1-4.2,2.3-.3,1.3.9.9,1.1,1.6s-.5,1.9-.2,2.5,2.2,1.3,2.4,2.6c.3,2-1.1,1.5-2,2s-1.2,1.8-1.7,2.5l3.7,1.8c1.3,2.2-.8,4.7-3,5.3-.6.7,1.6,1.1,1.7,1.1,1.8,0,4.5-.2,6.2,0Z" fill="#282752"/>
    <path d="M391.4,66.6c2.2-.5,4.9,2.5,4.6,4.5s-2.6.9-3.5.4c-2.2-1.4.2-5.2-5-3.4s-1.3,1.4-1.8,1.8c-3.2,2.2-11.2-2.6-1.7-2.3l-1.1-.8.3-1.5c1.6.1,1.3,1.9,3,2.1s4-.8,4.1-1c-.3-4-.4-10.8,1.4-14.4s1.8-1,1.6.4c-.4,3-2.1,5.4-2.4,7.6s0,6.4.4,6.6Z" fill="#282752"/>
    <path d="M433.5,81.8c.7.8.8,1.7,1.8,2.6,1.9,1.5,6.9,1.7,9.4,1.7s.9-.5,1.3-.5c.9,0,2.2.6,3.3.3-.1.5-1.9.9-2.3,1-.9.1-1.7-.6-2.3.4.7,1.2,1,2.4.6,3.7s-1.6,1.6-.3,2.3,3.4.7,4.2.7c3,.2,5.5-.7,8.4-1.1l1,1.1c-1.1,0-2,.8-3.1,1-2.3.5-8.7.9-10.7,0-3.9-1.8-.8-3.4-.8-5.3s-1-2.2-1.8-1l-.8-1.6c-4.5.6-7.7-1.4-9.6-5.3-.8-.4-2,1.6-2.5,1.1-.8-1,1.7-3.2,2.7-2.5s1.2,1.3,1.4,1.5Z" fill="#282752"/>
    <path d="M319.8,63.6c-.8.5-5.4,6.5-5,6.9l7.3-1.5c.8.9-3.8,3.6-1.5,6.4s3.1.9,4.6,1c-.4,1.1-2.2.9-3.2.7-4-.5-3.3-3.1-2.2-6.1-.7-.6-8.1,3.1-6.2-2.3l-3,1.2c-.9,1,.5,2.2-.7,3l-1-1-.7.3-1.5-8.1c1.4.1,2.7,5.8,3.5,5.4.3-.6,1.1-2.3,1.5-2.5s1.3-.1,1.9-.4c.9-.4,3.1-2.7,4-3s1.5.2,2.2.1Z" fill="#282752"/>
    <path d="M431.6,155.3c1,1,2.5,3.9,3.6,5.3s1.8,1.3,2.3,2.4c1.8,3.4-7.4,3.6-8.1,6.3,2.9.6,5.4,1.1,8.5.5.6.4.3,2,.6,2.8s3.6,2.7,1.4,3.2-3.9-3.6-3.3-5c-2.7.7-6.1.5-8.5-1,0-.7-.2-1.7.4-2.3,1-1,7.6-2.5,7.7-3.5-.1-2.3-2.2-3-3.5-4.6s-2.2-4.5-4.8-4.4-.2.6-.5.7c-1.8.9-2.6,0-1.4-1.5,1.8,0,4-.5,5.4.9Z" fill="#282752"/>
    <path d="M417.4,92.4c-.1,0-.7-.3-1.1-.1-1.4.6-3.3,2.4-4.2,3.6,3.3-.2,5.4-3.3,8.3-4.2l.2,3.1c2.5-.3,4.6-1.4,7.1-1.6s5.9-.2,4.8,1.2c-1.5.5-2.3,3-4.2,2.1l1.9-2.1-8.1,1.2c-.2.7.5,2-.6,1.9-2.4-.1-1.8-3.6-3.4-3.4s-4.7,2.9-6.2,3.4-1.6.5-2.5.4c0-.5-.1-1,.1-1.4s4.7-4.1,5.5-4.8,1.1-2.4,2.3-1.4.6,2,.1,2.3Z" fill="#282752"/>
    <path d="M373.6,168.3l.8,3.8,6.6-1.2,1.6-1.5c1,.6.5,1.9.7,2.5s1.3.2.4,2-2.9,0-2.4-1.8c-.3-.3-5.6.8-6.3,1.2-1.1.6-.8,2.5-2.7,2.2-.4-1.6-3.3-1.1-3.3-2.5s2.6-.9,3.5-1l-.2-2c-2.3-1.7-8.4,2.7-10.9-.2l12.3-1.7Z" fill="#282752"/>
    <path d="M421.9,136.3c1.3-.2,2.9-1.9,4.4-1.5v-1.1s-5.4-1.2-5.4-1.2c-.6-.6,3-3.2,3.3-3.9,1-2.2-1.2-3-3.1-2.7s-2,3.1-3.8-.3c-.4-.2.2,1.5-.8,1.1-1.6-.6-.1-2.3,1.5-2.3s4,.3,4.9.5c5.3,1,1.4,5.8,1.8,6.1,2.5-.4,4.5.7,6.4-1.5s-.6-1.4-.6-2.9,1.1-1.6,1.7-.6.2,1.1.4,1.5c.5.9,1.2,1.6,1.6,2.6s0,2.7,1.3,2.4c1.1.5-1.7,2.3-2.4,1.5-.2-1.7.5-4.6-2-4.6.5,1.3-2.5,2.5-3.3,2.6s-3.1-.9-3.8-.9-.8.2-1.3.3c-.9.9,2.8,1.1,3.2,1.3,3,1.2.9,3.7-1.5,4s-4.5.6-6.1.7-4.6-.4-3.6-1.4c.4-.2.9.4,1,.4,1.8,0,4.6.3,6.2,0Z" fill="#282752"/>
    <path d="M121.4,63.9c.4.4,2,1,1.8,1.8s-.6.4-1,.3c-2-.7-3.3-3.2-3.8-5.1-2.1,1-4.3,1.6-6.7,1.2l1.2,2.3c-4.3.7-8.7-.4-9.2-5.4l2.3.4-1.1,1c1.6,1.6,3,3.4,5.6,2.9s1.1-.4,1-1.1c-1.1.4-3-1.8-1.9-2.5s1.9.6,2.8,1c2.9,1.5,8.3-.4,3.7-3.3,3.5-2.5,3.7,4.4,5.5,6.6Z" fill="#282752"/>
    <path d="M162.8,95.5c-2.7,0-6.1,0-5.8,3.5,1.9.6,2.4-.7,3.6-1.2s2.5-.8,3.5-1.4.5-1.3,1.2-1.2c.9,1.2-.4,2.9,1.2,3.8.7-2,3.3-3.3,5.4-3.1,4.4.3,5,6.7-.6,4.3l.2-.8,2.5.4c.2-4.1-7-2.8-6.5,1.2-2.7.3-2.3-1.8-3.3-3.5-2.4.9-5,3-7.6,2.6-2.9-3,3.8-8.3,6.3-4.6Z" fill="#282752"/>
    <path d="M281.3,173.6c-.1.6.4.4.8.5,2.6.7,5.4,1.1,8,1.8-1.5-1.9-2.3-4.2-3.5-6.3s-2.7-2.5-.9-2.9c1.3.5,5.6,8.4,5.5,9s-2.3,3.7-3,3l.4-1.7c-3.2-.8-6.8-.9-9.4-3.3-1-1.8,4.1-.6,4.4-2.2s-.5-4.3-2.3-4l1-1.5c3.6,2.4,4.1,7.3-1,7.7Z" fill="#282752"/>
    <path d="M254.5,98.1c2.4,2,8.7-1,11.8-.6.1.8-.8,0-1.2.6-1.1,1.9.2,3.8-2.9,5.8s-2.6,1.6-2.4.3c2.4-1.6,4.4-2.6,3.8-6-3.8-.1-7.1,3.7-10.6.4-.8,0-1.1,4.3-1,5,.3.3,5.8-1.9,6.9-1l-6.3,2.4c-4.1-1-1.1-4.9-.6-7.6-4.4,1.3,0-1.8,1.4-2.7,1,1-.4,2.1,1.1,3.3Z" fill="#282752"/>
    <path d="M339.7,171.2c.2,0-.1-1,.8-.7,0,.7,1.3,5.4.2,5.4-1.9-1.6-1.7-3.9-4.7-4.1s-7.1,4.2-7.8,0l3.5-.8.4-3.5c-1.2-1-9.3,4.9-8.8-.4,3.2,1.7,6.4-.8,9.8-.7l.5.8c-.3,1-1.1,2.4-.2,3.3.5.3,6.2,1,6.5.9Z" fill="#282752"/>
    <path d="M270.4,62.6c.1,0,.2.5.4.6,1,.6,2.5.8,3.2,1.9l-4.2-1.1c0,.9.9,1.3,1.1,2.2.5,2.5-1.5,2.3-3.2,2.8s-.9-.1-.6.6,3.5,3.1,3.7,3.2c1.7.5,4.1-.2,5.9-.3-3.9,4.3-9.7.5-10.8-4.2l3.5-.6c1.6-1.7-2-3.3-2.3-3.7s.5-1.5.3-1.8-3.7-2-4-3.1l-1.7-2.7c2.6,1.2,4.3,3.5,6.6,5.2s1.5.7,2.1,1.1Z" fill="#282752"/>
    <path d="M229.1,169.3c.5.5,1.3.9,1.6,1.7.4,1.2-1.1,3.3,1,4.4-2.4,1.8-2.1-1.7-2.7-2.7s-2.9,0-4.2,0l-.5,3.3-1.9.8c-1.1-1.6-3.3-1.4-5-2.7s-3-2.8-3.3-4.4c.4-.6.9.1,1.2.4,1.1,1,1.8,2.6,3.1,3.4s2.1.6,2.9,1.4l.8-1.1.8,1.2,1-1.3-1.9-.6v-2.7c1.3-.4,2.1,1.1,3.3,1.1s2.5-.7,3.6-.4l-.4-2.7c.5,0,.6.7.9,1Z" fill="#282752"/>
    <path d="M68.5,139.8l-5,.8,3.1-1.7c-1.3-1.9-3.6-1.7-5.5-3s-4.6-4.7-2.9-6.9c1.1.4.3,1.3.5,2.3.4,1.7,5.2,5.7,5.5,3.7s-1.7-4.4,1.1-5.2,2,5.4.5,6.6l2.7,3.3Z" fill="#282752"/>
    <path d="M307.8,169c.7,1.5.7,3.7,1.3,5.1s1.5,1.2,1.4,2.2c-2.8.6-3.1-2.5-3.5-4.6l-4.9,2c-.8.7.1,2-.3,2.6s-3.4,1.3-4.5,1c-2.2-.7-4.9-5-1.1-5.2.3.7-.6.9-.6,1.3-.1,2,4,3.5,5.1,1.7s-1.6-1.7-1.7-2.5c.9-2.2,2-.8,3.3-.6s3.2-.6,4-1.4.4-2,1.5-1.7Z" fill="#282752"/>
    <path d="M296.3,63.6c.2.9-.4.9-.9,1.2-1.2.8-4.3,1.5-5.1,2.4s-1.4,3.1-.3,3.3c1.9-1.1,5.3-1.7,6.3.6-1.4,1.4-3.5.8-5.2,1s-1.1-.3-1,.6c1,2.5,7.6-.4,9.6-.4-1.7,1.4-7.8,3.5-9.6,2.3s-.9-4.3-2.7-5c2.3-2.9,4.7-6.1,8.8-6Z" fill="#282752"/>
    <path d="M174.7,133.2c0,.7,1.2.4,1.8.9,1.6,1.3,3.4,5.8-.4,5.6s-8.3-3.4-8.4-4c0-.8,1.2-.3,1.5-.3,2.6.3,2.6,1.1,4.6,2.3,6,3.7,3-4.4-1-3.8l3.4-2.5-1.1-2.5c-.7-.5-2.5,2.7-3.3,3.1l-1.3-1.3c2.2-3.8,5.7-3.9,7.1.6.2,1-2.1,1.9-2.9,1.9Z" fill="#282752"/>
    <path d="M395.2,170.2c1.7.4,3.7-.6,3.9-2.5s-.7-3.8.5-3.3c2.4,2.1,1.1,4.6-.9,6.3,3.3,1.8,7.8,3,10.9,4.9s1.7,3.1,0,2.6-.7-1.1-1.2-1.4c-3.6-2.4-8.6-3-12.1-4.9s-1.5-1.4-1.1-1.7Z" fill="#282752"/>
    <path d="M464.3,163c1.5,1.8-.1,5.1.9,7.2-3.4-.3-1.7-4.3-1.9-6.5h-1.1c0,3.6-8.1,7.9-6.8,1.8s3.9-3.9,6.1-1.8c.7-.6-.2-3.5.6-3.5s1,1.7,1.3,2.1.9.4,1,.7ZM460.2,164.4c-2.3-1-4,.2-3.8,2.7,1.7.3,3.9-.7,3.8-2.7Z" fill="#282752"/>
    <path d="M205.5,132.9c1.6-.4,1,.8,1.7,1.5s1.1.6,1.5,1.2c1.4,1.7.9,5.3,4.1,4.6l-1.1.4v1.9c-2.8.4-3.5-6.3-4.8-6.9-1.8,5.9-8.6-.8-9-4.1s.4-2.4.9-2.4c.8,0,.3,1.8.4,2.3.3,1.2,3.8,5.7,5.3,5.3,1.5-.7,1-2.4,1-3.8Z" fill="#282752"/>
    <path d="M190.6,164.7l5.7,2.8c-2.7.3-5.1-2.7-7.3.2l2.4-.2.6,1.2-1.7.8-.4-.8c-1.6,1.6-4.3,2.7-4,5.4l5-.4c-1.3,1.8-4.6,3.1-3.8,5.9s3,1.7,4,1.8c2,0,4-.9,5.9-.9-.8.6-2.4,1.4-3.4,1.6-3.6.8-8.6.7-7.7-4.2s.6-1.7,1.4-2l-3.1-1.6c-.3-1.2,1.6-3.4,2.5-4.2s2-.6,1.8-1.7c-3,1.4-3.3-3.3-5.7-3.8s-1.6.7-2.4-.7c3.5-2.3,5,2.3,7.4,3.6l1.8-1.1c.2-1.1-1-.7-1.8-1.5-3.4-3.4,2.7-5.1,2.6,0Z" fill="#282752"/>
    <path d="M459.3,54.5c1.5,2.3.1,3.8.5,5.8s7.4.5,7.7-.8-4.7-2-5.7-2.1c-.2-.8.4-1,1-1.1s4.7.6,5.1.9c3.8,2.3-6.4,8.2-8.9,4.6s1.1-5.3-1.3-7.5-3.2.6-4.4-.6c1.6-1.8,4.8-1.2,6,.7Z" fill="#282752"/>
    <path d="M230.6,138.6c.4.3,1.7,0,2.1-.3,1-.9-.4-2.7.8-3.1s1.8,1.1,2.7,1.1,1.8-1,2.8-.7l2,6.5c-1,1.1-2.9-4.3-2.7-5-1.6.7-2.2,1.2-3.7-.4-.4,0-1.1,3.4-3.4,3.1s-1.1-2.8-2.3-3.9l-2.1,3.5c.3.2,3.6,0,3.8,1.2-.8.1-4.8,0-5-1l1.9-4.8c3.5-1.1,2.5,3.4,3.1,3.8Z" fill="#282752"/>
    <path d="M27,89.4c-2.6.6-5.9.9-5.6,4.2-1.6-2-.9-5.3-2.2-7.6l-5.7.5c2.1-1,5.6-3,7.1-.2s.2,3.3,1.6,3.5,2.9-.5,3.4-.9c.8-.5.8-1.6,1.8-1.5.9.8,0,7.5.4,9s1.8,1.4,2.4,2.3c1.1,1.7,2.6,4.7-.5,4.9,2.2-2.5-.8-6.3-3.5-6.9-.2-.2.8-.8.8-1v-6.3Z" fill="#282752"/>
    <path d="M69.7,170.6l-.2.8-1.9-1.2c-1.3-.4,0,1.6,0,1.8.4,1.8.4,5.2,2.8,5.1.2.2-1.3,1.7-1.9,1-1.1-4-2.5-6-6.5-3.1s-3.7,3.7-2.3,4.6l4.2.9c-2.6.6-7.9.4-5.2-3.5s4.7-4,5.1-4.2c.9-.4,1.5-.5,2.4-.5.9-3.6-2.3-6.9-4.3-9.7s-.9-.6-1.1-.9c-.6-1,.1-2.1-1.5-2.4,0,1.4.3,1.9-1.2,2.3l.4-2.9c.3-.4.7,0,1.1,0,3.1.9,6.3,10.5,10.1,11.7Z" fill="#282752"/>
    <path d="M154.3,59.4c.8,1.9-3,2.9-3.1,3.7s2.1-.4,3,1.2-.7,2-1,2.5c-.7,1.1,2,3.6,3.2,3.4s.8-2.3,1.4.7c-2.5,2-5.2-2.2-6-2.3s-.8.6-1.2.6c-1.2.2-2.2-.9-2.4-2,1.6-1.4,4.8.3,4.6-2.5l-2.3-.6c-1.4-1,2.8-5.8,3.8-4.8Z" fill="#282752"/>
    <path d="M128.9,62.1l4.6-.8-.8-2.5c0-.3.8-.3,1-.2.5.2,2.7,4.9,3.1,5.8h1.3c.1.8,0,1.5-1,1.5-1.9.2-2-2.9-3.1-3.9-2.6-.5-7.3,4.2-9.7,1.4.8-1,2.3-.5,3.5-.6-.3-2.3-.7-4.9-2.7-6.3,2.4-2.4,3.8,3.9,3.8,5.6Z" fill="#282752"/>
    <path d="M494.8,70.1c-2.4-3-6.4-5.1-8-8.7s-1.1-5.1-.8-9.2.2-3.2-2.3-2.1l.4-1.8c5.2-1.3,2.7,5.4,2.8,8.1s1.6,5.6,3.4,7.7,4.2,3.1,4.6,6Z" fill="#282752"/>
    <path d="M144.1,123.9c.5.5,1.1.7,1.6,1.3,1.5,1.6,2,3.9,4.8,4.2.4,1.3-3.6,2.9-3.8,2.7l1.5-2.1-2.3-2.5c-.5-.4-1.7,4.4-4.8,1.6s-2.6-5.1-3.3-2.3l-1-.8c-.7-1.3,1.7-1.8,2.5-1.3,1.6.9,2.4,5.5,5.4,3.6,0-2.1-1.8-3.4-2.7-5.2,1.2-1.4,1.4.3,2,.8Z" fill="#282752"/>
    <path d="M225.1,72.1l-1.9.4c.7-6.4-3.4-1.5-5-1.7s-1.8-2.1-3.4-2.5c0,2.2-3.4,4.1-5,2.5-1.8-1.7,3.6-5,4.8-4.8s2,2.9,3.5,3.1,3.1-2,5.2-1,2.3,3.5,1.9,4ZM214,68.2c-1.6-.6-3.2,0-4.2,1.3,1.6,1.2,4,1,4.2-1.3Z" fill="#282752"/>
    <path d="M376.3,68.2l-4.5,3-3.2.5c0,.6,1.4.7,1.8.7,1,0,4.4-.3,5.1,0l.5,1.1c-2.7,1.3-14.6-1.4-15.8-3.7.9-.7,1.9-1.2,3.1-1l-1.9,1.1,5.8,1.5v-1.2c3.5,1.2,5.6-2.4,9.2-2.3Z" fill="#282752"/>
    <path d="M88.1,95.1l-.3-3.2.9-.6c.5.1,3,5.1,3.3,5.9s1.2,2.9.2,3.7l-2.9-6.5c-.7.2-.5,1.1-1.2,1.7-3.1,2.9-7.7,1.7-9.6-1.9s-1.6-3.7,0-2.5l-.4-1.5c1.4.8.9,2.5,1.7,3.8,2,3.4,5.3,3,8.2,1.1Z" fill="#282752"/>
    <path d="M246.2,65.3c1.5,1.3,2.9,3.8,3.6,5.6l5.9-1.9c.3,1.1,3.4,5.8,3.3,6.3s-.6.5-1,.3c-1.8-.9-2.3-4.9-3-5-3.6.6-6.9,2.5-10.6,1.4.8-1.5,3.1.2,4.2-1.3-.8-.7-1-1.8-1.7-2.5s-3.7-1.9-1.9-3.4c.4,0,.9.2,1.2.5Z" fill="#282752"/>
    <path d="M321.7,134c-.9-.4-2.9.9-3.7,1.5-4,3.2-.3,4.7,3.3,4.2l.6-1.9c1.5,1.2-.2,1.2-.2,1.3l4.2,4.6c-.7.9-.6.4-1.2,0-1.3-.7-3.4-3.2-3.7-3.3-1.3-.4-4.7,1.6-5.9-1.8s4.4-3.7,5.4-6.3l-3.9-3.6-5.4-2.5c4.6,0,8.6,3.7,10.4,7.7Z" fill="#282752"/>
    <path d="M377.2,97.3c3.5,3.9,4.1-.5,5.5-1.8s1.8-.3,1.7-2.3c-7.6,1.7-1.8-4.4,1.5-.6-1.1.4-.9,1.5-1.5,2.4-.9,1.6-3.1,5.3-5.2,5s-5.1-3.1-4.5-5.1l.9-4.9c1.5,2.2-.5,5,1.5,7.2Z" fill="#282752"/>
    <path d="M39.2,124.5c.8.8,1.6,2.6,1.9,3.7.9,3.3,1.1,11,2.5,13.6s1.8.2,1.5,1.4c-1.5.3-2.5-1-3-2.2-2.1-6-.3-21.5-11.3-16.2.3-2.2,4.8-2.3,6.3-1.8s1.9,1.4,2.1,1.6Z" fill="#282752"/>
    <path d="M349.4,130.5l-1.5,1.7c.2,2,2.2.8,2.7,1.1l.6,2.1c.6-.3,1.2-.4,1.9-.4s1.8-.3,1.7.4c-1.2,0-3.2,0-4.3.5s-1.2,1.4-2.8,1.8-1.4.1-.7-.4l1.3-1.2-2.7-.4c1.4,2.7-1.9,1.6-1.9.2s4.6-.5,5.8-1c.2-1.2-1.3-.6-2.1-1.5s-.5-1.4-.6-1.5c-.7-.5-4.7,2-6.6,1s-1.9-1.5-.1-1.5,2,.5,3.4.3,3.9-1.5,6-1.5Z" fill="#282752"/>
    <path d="M375.1,128.2l-.6,4.6,5.9,4.6,2-1.9-1.2,3c-2,.7-2.4-.9-3.3-1.5s-1.6-.8-2.4-1.4-1.5-2.1-3.2-1.7-.2.7-.5.8c-1.4.3-2.4-.3-3.2-1.3,2.3-2.2,6.5.9,5-4.6l1.5-.6Z" fill="#282752"/>
    <path d="M154.7,45.9l-.4-2.5c-2.2-.6-5.2,1.2-4.6,3.7-.8,0-.6-1.8-1.3-.8s-1.3,2.8-1.3,3c0,.5.6.8.6,1.1.1,1.3.2,1.5.4,2.7s-.5,1.5-.3,1.7.7-.2,1.2.3,2.4,3.4,2.3,4.2c-1.1.8-1.1-.3-1.6-.7s-.9-.1-1.1-.5-1-2.5-1.2-2.9c-1.5-4-2.1-7.1,1.4-10.3s5.4-3.5,6.2-2.3,1,3.4-.2,3.5Z" fill="#282752"/>
    <path d="M97.4,140.9c-.8.7-2.6-1.8-2.8-2.4s.5-2.8-.5-2.9-4.3,2.5-5.6,2.9-5,1.1-5,0l1-.9c1,1.8,8.6-1.8,8.9-2.4s-.4-.7-.3-1.2c.3-1.8,0-1,0-2.2s.4-2.2,1-2.3c-1.2,4.7,3.9,7.1,3.1,11.5Z" fill="#282752"/>
    <path d="M259.7,135.2c-.5,1.4-1.2,2.7-.4,4.2-1.6,0-2.5,1.8-4.1,1.9s-3.1-.6-3.4-1.1c-1.9-3.2,5.1-1.2,5.5-1.6l.3-2.3-4.1-1.2v-1.2s6.2,1.2,6.2,1.2Z" fill="#282752"/>
    <path d="M210.8,95.6c1,.6,2.3,6.3,1.2,7.6,2.8.6,5.2,2,6.5,4.6-1.9.4-2.5-1.2-3.7-1.9-1.9-1.1-4-2.2-6.3-2.4v-1.1c.2-.2,2.4.5,2.7-.6.3-.9-.3-2.5-.7-3.3s-.6-.3-.7-.6c-.5-1.1-.8-3.5,1.1-2.3Z" fill="#282752"/>
    <path d="M450.1,161.7c.1,0,1.2,2.4,1.1,2.7-.1,1.6-2.1,2.8-2.6,4.3l5.9,3.2.2,1.2c-.4.5-9.5-4-9.6-4.5s0-.9,0-1.3c3.2.2,4.9-.8,4.5-4.2-2.2.5-.7-2.3.4-1.5Z" fill="#282752"/>
    <path d="M316.7,98.6c-.5,1.6.6,3,.8,4.6,1.9-1.7,3.5-3.7,6.4-3.5s3.4,1.7,2.9,3.6-3.2,1.7-3.5.3l2.3-.4c1.3-1.6-3-3.3-5.4-1.3s-3.6,5.1-3.8,3.4l-.4-4c-2.9.8-6.1,4-9.2,1.9-.5-.8,2.6-3.7,3.5-4s3.6.4,3.8,1.2c-1.4.8-5.2-.2-6,1.3s1.6,1.2,2.3,1.2c1.6-.1,5.9-1.8,5-3.9l1.4-.4Z" fill="#282752"/>
    <path d="M54,96.3c.3.5,3.9.3,3.4,1.4s-1.5,1.2-2.1,1.3-4.6,0-4.8-.6c1.4-1.2,2.6-.6,4.2-.2.1-1.3-1.8-1-1.9-2.5s5.8-7.6-2.1-6.3-3.8,2.4-4.1,0c2.1.2,6.8-2.1,8.5-.6s-2,6-1.1,7.5Z" fill="#282752"/>
    <path d="M247.2,139.7c.3.5,1.9.5.4,1.7-3.5-.6-2.8-5.8-4-7.9s-4-3.5-5.6-4.4l-2.5-2.7c2.7.7,6.7,3.8,8.5,6s1.6,5.1,3.2,7.4Z" fill="#282752"/>
    <path d="M294.2,97.2c.6.4,1.5,1.5,2.8,1.4l-.9.8c-1.1-.8-2.6-.8-3.7-1.4-3.8-1.8-5.9-5.4-8.7-8.3l-.6,1.5h-1.2c0-1.1.2-2.5,1.4-2.7,1.3-.1,5.7,5.2,7.1,6.4s2.3,1.5,3.7,2.3Z" fill="#282752"/>
    <path d="M162.4,146.3c-.6.1-.5-.7-.6-1.1-.3-1.3-.7-3-.9-4.1-.8-5.1-1-9.8-1.9-15s1-4.1,1.4-1.8c1.4,7.1,1,14.9,1.9,22.1Z" fill="#282752"/>
    <path d="M1.6,84c0,2.5-.6,8.2,3.2,7.7s.8-3.3,1.4-5.4c3,0,1.5,2.4,1.6,3.9s2.5,4.1.5,6.1c-.5-1.5.3-3.2-.9-4.4-1.1-.7-1.4.5-2,.8-3,1.4-5.2-3.4-5-5.8s1.4-1.6,0-2.9h1.2Z" fill="#282752"/>
    <path d="M20.8,138.6c.1.6-1,.4-1.3.4-2.9-.6-2.6-4-4.6-5.7-1.9,1.9-6,3.2-8.6,3.7s-3.3.7-3.9-.6c1.4-.1,3,.2,4.3,0s4.3-1.4,5.2-1.8,2.7-1.5,2.8-1.7-1-1.8.6-1.9c1.5.3,3.2,7.5,5.6,7.7Z" fill="#282752"/>
    <path d="M112.8,139.4c-.9,1.1-2.1-4.1-2.3-4.2-1.7.9-3.7-.5-5.5,0s-.6,2.5-2.2,1.9l.4-1.7-.8-.6h1.1c0,0,.2-1.2.2-1.2l6,.8-1.2-2.8,1.2-.4c1,1.2,4,7.2,3.1,8.3Z" fill="#282752"/>
    <path d="M452.5,65.9c.1-2.7-2-4.6-3-6.8s-2.1-5.5-3.2-8.1l-.7.3v-1s1.3-1,1.3-1c.8,0,2.4,6.2,2.8,7.2.9,2.2,4.5,6.6,3.9,8.7s-.6.7-1.1.6Z" fill="#282752"/>
    <path d="M143.2,134.8l.2,1.2c1.9.2,4.6-.8,5.9.9l-4.1.2-1.2.4c-.4,4.3,2.8,5.2,6.6,4.6s2.2-1.6,2.1-.2c-2.6,2.2-8.1,2.4-9.3-1.4s0-2.4-.3-3.5-2.4-1.8,0-2.2Z" fill="#282752"/>
    <path d="M244,175.2l-.4-4.2c-2,.2-4.2.4-5.2,2.3l-2.9-2.1c-.2-1.3,1.9-.1,1.9-.2l-.6-4.2c2.1.4.9,3.2,2.4,4.2,1.1.4,4.7-.7,4.6-2.3l1.4,6.1c.7.6,3.6-1.1,4.2.4h-5.4Z" fill="#282752"/>
    <path d="M312.8,59.3c.3-.2.3-1.4,1.2-1.1.2.7-.8,1-.7,1.7s1.7,3,1.5,4.3c0,.6-2.5-.2-2.7-.8l1.5.2-.2-1.9-1.7.8c.6-2.9-1.8-2.3-4-2.6l-1.8,2.3c-.4-1.8-2.6-1.5-1.9-3.8,1.8-.6,7.7,1.7,8.8,1.1Z" fill="#282752"/>
    <path d="M27.8,213.6c-1.5,4.6-4.2-4-5.3-4.2-1.1,0-4,.4-4.7,1s.6,2.6-.6,2.9-5.9-2.7-5.2-3.4l4.2,2.3c.2-2.6,1.2-2.1,2.8-2.7s.3-.6.6-.7c.7-.2,3.3-.3,4.1,0,1.4.6,1.7,5.1,4.1,4.9Z" fill="#282752"/>
    <path d="M68.9,55.9l.9,4.5c1.1.3,2.3.6,3.4,1.1s1,0,.8.9l-3.6-1.1c-.6.2-.8,1.4-1.4,1.7-1.5.7-5.6-.4-4.3-2,1.1-1,2.8-.4,4.3-.6l-2.7-4c.6-.9,1.7-.6,2.7-.6Z" fill="#282752"/>
    <path d="M475.2,65.1c-2.9-.9-2-3-2.4-5.1s-2.7-2.7-3.2-4.9-.2-2.6-.2-3.9l1.4.4c.4,1,0,2,.4,3.1s2.3,2.5,2.9,4,0,4.3,1.1,6.4Z" fill="#282752"/>
    <path d="M416.3,168.2c-1.6-.2-6.4,2.9-6.5,4.4,0,2.2,4.6,1.6,5.9,1.8s1.2.3.6.8c-2,.4-9.1,1-8-2.8s2.6-3.3,3-3.6c1.1-.8,4.9-3,5-.6Z" fill="#282752"/>
    <path d="M364,100.5c-1.3.5-2.5-1.2-3.3-1.2s-.1.7-.5.8-1.1,0-1.7.2c-2.4.7-6,2.9-7.7.2.8-.2,1,.7,1.7.7,2,0,5.8-2.6,8-2.6.1-1.8-1.9-2.8.2-4.2l3.3,6.1Z" fill="#282752"/>
    <path d="M341.6,165.6c.1,0,1.6,2.3,2,2.8,1.5,1.7,3.3,3.2,4.2,5.4s.4,3.7,1.2,5.5c-1.2,1.3-3.4-6.1-3.6-6.6-1.2-2.5-3.8-4.3-4.8-7.1,0-.4.9-.2,1.1-.1Z" fill="#282752"/>
    <path d="M294.7,105.2c-1.9.4-2.1-1.3-3.3-2.2-.8.7-2.4,1-3.5,1s-2.2-1.2-3,.8l-.9-2.1c.2-1.1,3-.1,4-.1s2.2-.4,3.3-.4l-1.2-2.3c.5,0,1.2-.1,1.7,0s3.3,5,2.9,5.3Z" fill="#282752"/>
    <path d="M283.6,97.1c1.2,5.1-3.4,6-5.2,9.6.6,1.5,6.2.6,7.7.4l4.8.2c-1.1,1.7-3.1.4-4.5,1.6h-8.5c0,0-.3-2.6-.3-2.6,2.1-2.6,4.7-5,5.2-8.5-.8-.8-4.7,1.5-5.4,0l6.2-.8Z" fill="#282752"/>
    <path d="M145.9,94c-5,.3-7.9-1.3-11.5-4.5s-1.2-2.5-3.1-2.1c.4-.9.2-1.2-.4-1.9,3.6.4,4.8,4.3,8.1,5.9s3.7,1.1,5.6,1.7,1.2.1,1.3.8Z" fill="#282752"/>
    <path d="M397.8,100.9c-1.2,1.7-3,.2-4.1-.8-2.5-2.4-3.6-6.6-6.3-8.9.5,0,.9-.4,1.4-.4,1.9,0,5.5,10.1,9,10Z" fill="#282752"/>
    <path d="M420.1,163c.6.8-.4,3.5-.3,5.1s.6,2.6,1.2,3.9.6.8-.2,1c-1.7.3-2.9-5.2-2.9-6.3s1.1-1.8.8-2.9l-3.8-.8,3.3-.8c.6,0,1.7.5,2,.9Z" fill="#282752"/>
    <path d="M229.7,71.3c-1.4-.7-1.3-2.6-1.9-3.6s-7.1-7.9-7.6-8.2-4.6-1.6-3.9-2.4c3.1,0,4.9,1.9,6.9,4.1s2.7,4.1,3.6,4.8,1.6-.3,2,.3-.2.8,0,1.1c.7,1.5,2,1.8.9,3.9Z" fill="#282752"/>
    <path d="M265.1,93.2c-3-1.9-6.2-3.5-9.8-3.8s-8,.2-10.9,1.4-1.2,1.7-1.3,2.4c-3-2.7,4.9-4.4,6.7-4.6,4.8-.5,10.2.2,14.2,3.1s1.1.9,1,1.5Z" fill="#282752"/>
    <path d="M395.2,140.2l-5.7-12.2v-2c.7-.2.9.6,1.3,1.1,2.1,3.6,3.1,8.6,5.5,12.2l-1.1.9Z" fill="#282752"/>
    <path d="M167.4,179c-3.2.4-2.8-5.4-3.8-6l-3.5.6c.7-1.3,2-2.2,3.5-2.3l-2.7-3.1c5.6,0,3.5,7.6,6.5,10.8Z" fill="#282752"/>
    <path d="M387.8,128.7v1.1c-2.3-.7-5.1,5-3.2,6.2l4.4.9c-.4.7-1,.6-1.7.6-5.6.3-6-3.8-2.9-7.5s2.1-2.2,3.4-1.3Z" fill="#282752"/>
    <path d="M349.8,98.2l-.4,1.5c-2.2,0-5.2.1-6.5,2.2s-.6,2.4-1.3,2.5c-1.3.3-.3-1.5-.9-2.1s-3.6-1.6-4.6-1l.4-1.5h-1.9c.7-1.6,1.7-1,3.1-.8v1.3c1.2-.4,3.5,1.3,4,1.3s4.1-2.5,5.2-2.9,2.1-.6,3.2-.5Z" fill="#282752"/>
    <path d="M62.8,213.8c-.1-1.6-.8-4.1-1.3-5.7s-2.5-5.6-2.6-7,0-.6.8-.6c2.4,5.1,4.4,10.6,3.9,16.3l-.8,4c-.2-2.3.2-4.8,0-7.1Z" fill="#282752"/>
    <path d="M38.2,174l-.2,1.9,4-.8c-.1,1-3,2.2-3.1,2.6-.5,2.1,1.2,3.8,3.3,4s2.6-.9,4-.6c-.4.7-1.1.4-1.6.6s-.3.6-.6.7c-2.2.7-4.8.2-6-2s-.7-2.1-.7-2.4,2.6-1.2-1.1-1.8c-.1-.2,1.1-2.6,1.9-2.3Z" fill="#282752"/>
    <path d="M117,100.2c-1,.2-.7-.3-1-.7-.6-.8-1.6-3.3-2.3-3.5-1.8.2-2.3,2-3.2,3.2-1.7,1.1-3-2.9-3.5-3.8s-1.5-.1-.7-1.8c.9-.8,2.6,4.1,3.3,4.2,1.2-.3,1.3-1.5,2.4-2.2,3.4-2.2,5,1.6,5.1,4.5Z" fill="#282752"/>
    <path d="M402.5,61.7l-.8,2.7h3.8c-.4,2.1-2.8,3.4-.9,5.8,2.9,1.1,5.9-.3,8.8-.4s1.5-.3,1.4.4c-2.6-.1-8.6,2.2-10.8,1s.1-4.9-.4-5.5l-3-1c-.2-.7.8-2.9,1.9-2.8Z" fill="#282752"/>
    <path d="M269.6,103.3c.2.2,1,1.8.7,2.2-.5.4-1.1.5-1.7.7-2.3.5-6.4,1.8-8.8,1.7s-2.8-.6-2.9-1l.4-1.7c1.2-.4,1,1.5,1.4,1.6,3.8-.5,7.3-.4,10.9-2l-2.7-1.9c.7,0,2.1,0,2.6.5Z" fill="#282752"/>
    <path d="M24.2,203c.3.2.5.9.9,1.2s1.1.5,1.2.7c.8,2.4-1.6-.4-1.7-.4-3.1-2.2-7.9-3-9.9-6.9s0-2.6,1.1-1.1c3.5,4.7,4.4,3.5,8.4,6.4Z" fill="#282752"/>
    <path d="M125.9,97.9c1.9-.2,2.7,1.6,4.4,0s.5-1.3-.2-2.1c-2.1-2.4-3.7-.3-5-1.1-.8-.7,0-1.3.6-1.7,1.3.7,3.3.4,4.4.9,1.6.7,3,3.1,1.2,4.6s-6.4.3-5.4-.6Z" fill="#282752"/>
    <path d="M197,63.2c.2.7-.4,1.8-.2,2.3.5,1.4,2.8,2.4,3.2,3.8-2.2.1-4.3-2.1-4.2-4.2-2.4-.4-3.1,3.6-5.8,1.3-.2-.5,1.7-1.4,1.9-1.5.8-.3,1.6-.1,2.3-.4s1.4-1.6,2.7-1.4Z" fill="#282752"/>
    <path d="M42.7,211.3c-.7,1.1-7.6,2-6.5-1.1l5.4.8c0-2.4-3.7-2.4-4.2-5,.5-.4,6.8,2.8,5.3,5.3Z" fill="#282752"/>
    <path d="M476.6,93c0,0,1,.8.9,1-.6,0-1.3-.1-1.7.4-1.6,1.8-1.1,8.2-5.2,9.2.3-1.3,1.3-2.1,1.8-3.4.9-2.2,1.4-4.7,1.8-7,.8-1.2,1.4-.7,2.3-.2Z" fill="#282752"/>
    <path d="M151.3,178.6c-.9.1-.6,0-.8-.5-.5-1.4-.4-3.2-.8-4.6s-3.1-4.8-.9-5.3,2.2,3.8,2.4,4.5c.6,2.2.2,3.6.1,5.8Z" fill="#282752"/>
    <path d="M430.2,63.2l.4-1.2c-2.5-.1-3.4-.9-.6-1.9l.6,1.5c2.3.2,1.6-1,2.1-1.9.9-1.5,3.2-2.9-.3-2.6s-5.7.7-6.3,1.6c-1.1,1.5.6,2.6.3,3-1.7-.1-2.1-2.5-1.9-3.8.3-.5,9.6-1.9,10.4-1.4,1.9,1.3-4.3,7.2-4.6,6.8Z" fill="#282752"/>
    <path d="M12.4,207.1c-.7,1.1-6,5.2-3.6,6.5s3,0,3.6,1.2l-5-.2c-1.6-1.3,2-7.6,3-7.9s1.4.4,2,.3Z" fill="#282752"/>
    <path d="M471.7,131.7c-4.6.5-4.6-3.3-3.9-6.9h-2.7c6.6-4.9,3.1,2.1,3.9,4.7s2.2,1.1,2.6,2.2Z" fill="#282752"/>
    <path d="M137.8,178.6c.1-2.1,2.8-2.7,1.9-4.8s-2.2-1.7-3.4-2.4-1.1.2-.8-.9c6.2-.3,8.8,5.8,2.3,8.1Z" fill="#282752"/>
    <path d="M267.2,140.8c.2.3,1.7.5.8,1.7-1,.1-2.6-1.6-3-2.4s-.2-1.4-.4-1.9c-.4-.9-3.1-4.4-.9-4.9s.8.5.9,1c.8,1.8,1.6,5.3,2.4,6.6Z" fill="#282752"/>
    <path d="M66.2,90.9c-1.6,2,4.4,5.6,2.1,6.5s-1.4-2.1-1.9-2.7-1.3-1.4-1.6-1.5c-1-.2-4.3,1.7-4.7.5l3.8-1.5-1.5-2.1,3.8.8Z" fill="#282752"/>
    <path d="M294,140.6l-4.3.6-2.5-1.3c-.4-.9,6.6-4.5,1.6-6.2s-4-.5-2.6-1.3,7.4,1.8,4.6,5.3-2.9,1.6-2.5,2.2c1.6,1.1,3.7.7,5.6.8Z" fill="#282752"/>
    <path d="M17.4,171.3c.5,2.2-3.5,2.7-3.8,3.7l.4,2.4,3-.2c-3.5,3.3-6,0-3.2-3.2s2.8-1.4,1.5-2.3c-3.9,1-7.7,2.7-11.7,2.3.2-.6.9-.9,1.4-1.1,2-.5,9.2-1.8,11.2-1.8s.8.1,1.2.2Z" fill="#282752"/>
    <path d="M259.4,62.8c0,.7-1.7.4-2.1.3-1.1-.2-2.6-.8-3.7-1.3s-6.5-5.1-5.4-6.3c1.4,0,1.9,1.7,2.7,2.5,2.4,2.2,5.1,4.4,8.4,4.9Z" fill="#282752"/>
    <path d="M144.3,66.7c-3.5-.2-3.2-5.9-7.3-6.2l.6-1.5c3.4,1.2,5.8,4.3,6.7,7.7Z" fill="#282752"/>
    <path d="M144.3,94.8c.7,2.2,1.7,5,2.8,7s1.4,1.2,1.4,2.2c-1.9,1.7-5.2-7.5-6.1-8.3-.2-.9,1.2-1.1,1.9-.9Z" fill="#282752"/>
    <path d="M437.5,125.2c1.2-.2,1.5.5,2,1.3,1,1.5,2.2,4.2,2.9,6s1.2,1.9.3,2.4c-.7,0-1.1-.7-1.4-1.3-.5-.9-4.1-8-3.8-8.3Z" fill="#282752"/>
    <path d="M128.2,168.6c-.3,3.2.6,7.2,3.7,8.8l-.4.8c-3.1-.4-5.4-5.8-4.8-8.6s1.2-1.4,1.5-1Z" fill="#282752"/>
    <path d="M252.4,174.8l-1.6-.2c-.7-1.8-1.2-4.9-2-6.4s-1-.6-1.1-.9c0-1.4,1.1-1.8,2-.8l2.7,8.3Z" fill="#282752"/>
    <path d="M302.4,62.5c.2,2.7,2.1,4.2,2.2,7.2s-.5,2.1-1.1.7c-1-2.3-1.8-4.9-3.4-7,.5-.9,1.3-1.1,2.3-1Z" fill="#282752"/>
    <path d="M460.2,124.8c-.5,2.7,1.4,4.6,1.2,7.3h1.1c-2.2,4-3.1,0-2.7-2.7-.3-.3-6.8,1.6-8.2,1.4s-3.7-1.1-3.8-1.5c-1.1-2.4,2.3-2.4,1.7,0l1.9-.2.4-2.5c1.9,0,.5,1.8.8,3.1,1.3.3,7.4-.4,7.1-2.1s-1.1-1.7-.6-2.9h1.2Z" fill="#282752"/>
    <path d="M177.8,135.2v-1.5c2.2-.4,3.6,1.1,5.8.4.2-.2-1.2-2.9.2-2.7l1.1.8c.4.9,0,1.9.3,2.8s1.1,1.1,1.1,1.2c.1,1.6-2.7-1.2-2.9-1.2-.4,0-.9.3-1.4.2-1.8-.3-2.1-.8-4.1,0Z" fill="#282752"/>
    <path d="M178.6,94c.4.3.1,2.3.3,2.9s1.6,3.4,2.1,4.1,2.6,1.8.9,2.2-4-4.3-4.3-5c-.3-1.1.4-2.4-.1-3.6.1-.4.8-.9,1.1-.6Z" fill="#282752"/>
    <path d="M246,107.4h1.8c-.6,1.2-.9,2.2-2.3,1.4s-2.5-7.5-1.5-9c1.8,0,.6,2,.8,2.9s.6,1,.7,1.6c.2,1-.2,2.2.5,3.2Z" fill="#282752"/>
    <path d="M194.7,138.6c-1,0-1.9.1-2.5-.8l-3.3-7.3c3.7.8,3.5,5.8,5.8,8.1Z" fill="#282752"/>
    <path d="M118.2,131.3c.6,2.4,1.5,4.5,2.9,6.5l2.1,2.3c-3.2-.3-5.6-4.2-5.8-7.1s-.3-2.1.8-1.7Z" fill="#282752"/>
    <path d="M327.8,65.2c.7.8-2.8,3.1-3.1,3.8,3.2-.2,6.2-1.6,9-3.1,1.1.7-.2,1.2-.1,2.4s.5,1.6.9,1.8l2.7-2.6c1-1.5,5.8-.2,5.5,1.2-.7.8-1.9,1.8-3.1,1.8-.1-1.4,2-.4,1.5-2.3-4.2-1.3-4.9.9-6.7,3.8-1.8-1.3-1.3-3.4-2.3-5-1.1.7-7.8,3.9-8.7,3.1.2-2.3,1.5-5.1,4.2-5Z" fill="#282752"/>
    <path d="M390.2,166.3c.1,1.3-.2,2.8,0,4s1.8,2.4.6,3.3c-1.9-.9-2.3-2.1-2.5-4.1s1.1-2-1.2-2.1l3.1-1.2Z" fill="#282752"/>
    <path d="M90.4,128.7c1,1,.5,4.3-.9,4.9s.7-2.2.6-2.9c-.3-3.6-6.5.5-8.1.9-1.5-1.6,7-4.3,8.4-3Z" fill="#282752"/>
    <path d="M374,98.6c-3.5-.6-5.1-1.3-5-5.2s0-2,.6-2.1c1.5-.3.7,3.2,1.2,4.2s3.2,1.4,3.3,3.1Z" fill="#282752"/>
    <path d="M193.6,67.5c-3.3,4.3-5.5,1.8-8.4-1s-1-.6-.8-1.3c2.4.3,4.1,3.4,6.3,3.1s1.8-1,2.9-.8Z" fill="#282752"/>
    <path d="M30.6,177.4c.6.7,2,.5,1.8,1.7-2.4.2-3.7-1.7-4-3.9s.7-2.6.5-3.2-2.7-.5.2-2.1c1.2,0,.4,4.3.6,5.5s.5,1.6.9,2Z" fill="#282752"/>
    <path d="M177.4,61.3c.9,3.4,4.7,4.9,4.6,8.8h-1.2c.3-2.8-2.2-3.4-3.3-5.4s-1.3-2.7-1.3-2.9c0-.2.9-.8,1.1-.6Z" fill="#282752"/>
    <path d="M111.9,84.5c.4.4.5,1.2.9,1.5,3.3,3.3,3,4.3,5.2,7.6s1.5.6,2.1,1.4.4,1.8.9,2.6,2.8,2.5,2.3,2.9c-3.3.4-3.9-3.9-5.2-6.2s-4.1-6.7-5.8-7.7-2.4.2-1.7-2.7c.2-.1,1.2.3,1.4.5Z" fill="#282752"/>
    <path d="M204,187.1c-4.1.3,0-8,1.3-7.7.6.5.6.5.4,1.2-.5,2-3,4.2-1.8,6.5Z" fill="#282752"/>
    <path d="M230.1,99.8c-.4,1-.2,1.8-1.5,1.5,1,3.1,4.9.9,7.1.8s.6,0,.6.8c-2.5,1.3-9.4,2.5-8.1-2s1.7-1.3,1.9-1Z" fill="#282752"/>
    <path d="M298.6,135.6l2,7.2,1.9.4c-3.4,1.4-2.9-1.3-3.8-3.3s-2-2.5-1.6-4.3h1.5Z" fill="#282752"/>
    <path d="M34.7,142.5c0,.6-1.3.6-1.8.7-2.3.4-7,.9-8.6-1.3s-.8-2,.2-1.8,1.7,2.3,3.5,2.3h6.7Z" fill="#282752"/>
    <path d="M28.9,137.1c1,.9-3.8,2.5-4.7,2.5-2.6-.1-3.1-1-3.4-3.4l1.5-1-.7,2.1c.8,2.4,6.7-.6,7.2-.2Z" fill="#282752"/>
    <path d="M43.2,167.1c-.3.6-2.3.8-2.9.8-2.9,0-6.8-2.5-8.7-4.6,2.6-.2,4.5,2.7,6.5,3.3s3.5.4,5,.6Z" fill="#282752"/>
    <path d="M311.7,141.7c-2.1,0-2.8-2.5-3.3-4.2s0-1.5-.2-2.1-2.2-1.5-.6-1.8,2.5,5,2.9,6,1.2,1.2,1.2,2.1Z" fill="#282752"/>
    <path d="M40.5,197.1c-.2,1.7,3,2.2,4.4,3.1s2.6,2.1,3.7,3c-2.3-.6-8.4-3.3-9.2-5.6s.7-.6,1.1-.6Z" fill="#282752"/>
    <path d="M43.5,165.2h-1.5c0-2.5-1.6-4.3,0-6.5,1.7-1.2,1.4,5.9,1.5,6.5Z" fill="#282752"/>
    <path d="M366.3,138.6h-1.2c1-3.4-4.8-6-2.1-8.8.6,3.2,3.8,5.3,3.3,8.8Z" fill="#282752"/>
    <path d="M7.8,132.9c.5-1.8,2.2-1.3,1.5-3.8l-3.6.3-3.7-.7c2.4.5,6.5-2,8.5-.2s-1.4,4.2-2.7,4.4Z" fill="#282752"/>
    <path d="M75.5,176.3h1.5c.2,1.5-1.8,1.4-2.3.5s-.6-4.9-.7-5.1c-.8-.2-2.6,1.2-2.3-.4,6-2.1,2.9,1.2,3.9,5Z" fill="#282752"/>
    <path d="M74.7,54.4l-5.9-5.7c-1.9-.3-5.2.2-5.7-2.4,1.5,1.4,3,.9,4.6,1.3s4.6,3.7,6.1,5.4.9.6.8,1.3Z" fill="#282752"/>
    <path d="M171.3,64.4c.6-.9.7-4.4-.6-4.6l-.9.6c-1.2.5-.3-1.9-.4-2.5,3.4,0,5.4,5.2,1.9,6.5Z" fill="#282752"/>
    <path d="M85.9,55.1c-1.9-1.4-3.4-3.4-5.2-5s-4.5-2.6-3.7-3.5c2.3,1.2,4.7,2.5,6.3,4.6l2.5,3.8Z" fill="#282752"/>
    <path d="M443.6,64.8c-1.2,1.1-2.6-3.3-3.1-4s-1.1,0-.8-1c1.4.3,2-1.6,2.3-2.7.9.4,0,2,0,2.8s1.7,4.7,1.5,4.8Z" fill="#282752"/>
    <path d="M72.4,133.2c2.4.2,3,3.5,3.9,5.6s.6,1.2-.2,1.4-3.9-6.6-3.6-6.9Z" fill="#282752"/>
    <path d="M230.5,105.2c-1,1.1-1.4,1.9-1.2,3.5,2.5.2,4.4,0,6.3-1.5l-.3,1.5c-2.3.6-4,2-6.5,1-1-.7-.3-4.6,1.6-4.4Z" fill="#282752"/>
    <path d="M418.2,69.4h-1.5c-.9-2.4-2.6-4.3-3.9-6.3s-.4-.9.2-1c2.4-.3,3.5,6.1,5.2,7.3Z" fill="#282752"/>
    <path d="M74.7,98.2c-.1.1-1.2.1-1.3-.5l-4.9-6.4c1.1-.2,1.9.3,2.5,1.1.5.6,3.9,5.5,3.6,5.8Z" fill="#282752"/>
    <path d="M176.6,70.1c-3.6,0-6.2-1.5-9.2-3.3s-1,0-.8-1c2.4,0,4.3,2.1,6.5,2.9s2.9-.1,3.5,1.3Z" fill="#282752"/>
    <path d="M437.9,67.1c0,.6-1.7.7-2.2.7-.9.1-4.6.5-5.2.3-2-.6-3.3-3.1-.8-4.1l-.8,1.7c0,.2,2,1.4,2.1,1.4h6.7Z" fill="#282752"/>
    <path d="M80.9,59.4h3.1c-.9-1.6-1.1-4.6-3.1-5l1.1-1.1c1,2.1,2.7,3.9,2.6,6.3-.2.8-4,1.8-3.8-.2Z" fill="#282752"/>
    <path d="M50.6,209.6c0,.1.4.1.6.5.6,1.5.5,3.3-1.5,2.8,1.4-2.5-2-3.6-2.3-5.8,1.7-.4,2.5,1.3,3.3,2.5Z" fill="#282752"/>
    <path d="M159.3,174.4l-3.1,3.6,1,1.3,3.6.8c-1.9.8-3.5.3-5.3-.4-.8-1.1,2.2-5.4,3.8-5.3Z" fill="#282752"/>
    <path d="M446.4,81.7c.4.3,4.5-1.1,5.3-1.5-.8,1.3-3.3,3-4.8,2.9s-2.8-3-1.5-2.9.9,1.4,1,1.5Z" fill="#282752"/>
    <path d="M233.6,98.2c.9-1.6,3.8-.8,3-3-1.1-.4-2-.2-3,.3,0-2.3,2.6-2.2,4-.8,1.1,1.7-2.4,4-4,3.5Z" fill="#282752"/>
    <path d="M356.6,95.2c.5,2.3-1.2,4.5-3.4,4.9l2.7-3.8c-1.6-1-3.4,1.7-3.1-.8,1.3.4,2.3-1.4,3.8-.3Z" fill="#282752"/>
    <path d="M136.9,96c0-.1-1.8-.9-1.1-1.6s.9.3,1.2.6c.7.8,2.4,3.7,3,4.7s.7.7-.1,1.3c-1.1.2-2.4-2.6-2.8-3.4s0-1.1-.2-1.5Z" fill="#282752"/>
    <path d="M363.6,68.6l1.5-2.4c-.2-1.1-4.6-2.6-4.6-4.5l5.6,3.8c.2.5-2,3.6-2.5,3.1Z" fill="#282752"/>
    <path d="M322.4,57.8c-.9-.3-.5-1.9-1.7-1.9s-4.3,1.7-6,1.3c2.1-1.7,8.3-4.2,7.7.6Z" fill="#282752"/>
    <path d="M332.8,101.3c-2.7,4.4,1.6,3.8,4.6,4-.8.8-2.6.7-3.7.6-5.1-.6-1.9-5.5-1-4.6Z" fill="#282752"/>
    <path d="M25.1,177.9c-1.8.3-1.6-1.8-2.1-3.1s-1.8-1.4,0-2.7l2.1,5.8Z" fill="#282752"/>
    <path d="M103.7,98.5c.7.9,3.4.9,4.1,2-1.2.1-4.1-.3-4.9-1.3s-1-3.3.3-3.7c0,.7,0,2.4.5,3Z" fill="#282752"/>
    <path d="M82.8,60.9c.4-.3,6.5,3.6,6.5,4,0,.8-.9.3-1.3.1-.6-.2-6-3.6-5.3-4.2Z" fill="#282752"/>
    <path d="M198.2,111.7c0,.8-1.5.3-1.8,0-2.5-1.2-3.4-4.1-2.8-6.6l1.7,4.6,2.9,1.9Z" fill="#282752"/>
    <path d="M310.1,126.3c-.1.7.6,1.3.6,2s-.4,2.8-1.2,2.7c-1.2-1.2-1.3-2.8-.3-4.1s0-.7.9-.5Z" fill="#282752"/>
    <path d="M75,57.5l2,7.2c-.9.3-1.2-1-1.3-1.5-.4-1.2-.3-2.9-.8-3.8s-1.3-1.1-1.3-1.4c-.2-.9,1-1,1.5-.5Z" fill="#282752"/>
    <path d="M30.1,130.9c.8.8-1.4,1.7-1.8,1.8-1.2.3-2.4,0-3.5.5-1.2-1.2,4.7-2.2,5.4-2.3Z" fill="#282752"/>
    <path d="M38.5,173.6c.4-1.8,3.9-2.5,4.5-3.2s.3-2.5,2-.5l-6.5,3.7Z" fill="#282752"/>
    <path d="M28.9,194c-.3,1.7.3,4.3-2.3,3.8.5-1.4.3-4.2,2.3-3.8Z" fill="#282752"/>
    <path d="M201.7,100.9v1.2s-6-1.5-6-1.5l-.2-1.9c.8.1.2,1.2,1.2,1.7s3.7.6,5,.6Z" fill="#282752"/>
    <path d="M357.8,137.1c-.2-.6.4-1.5.2-1.9s-2.2-1.1-1.3-1.9,4.5,3.3,1.2,3.8Z" fill="#282752"/>
    <path d="M100.1,117.9l1.2,4.6c-1.1.2-.6-.3-.9-.8-.7-1.4-3.2-4.6-.3-3.7Z" fill="#282752"/>
    <path d="M247,160.6l.8,1.8-2.7,1.5c.7-1.3.5-2,.4-3.5h1.5Z" fill="#282752"/>
    <path d="M149.6,70.2c0,0,.5,1,.5,1-.9.3-1.6,1-2.7.8l-.4-2.3c0,0,2.4.3,2.6.5Z" fill="#282752"/>
    <path d="M144.7,87.8c-1-.4-1.9-.5-2.9-.8s-1,0-.6-.9c.7-1.7,4,1.2,3.5,1.7Z" fill="#282752"/>
    <path d="M152.4,73.6l-1.5.2.8,2.1-1.9-.4c-.8-.8,1.8-4,2.7-1.9Z" fill="#282752"/>
    <path d="M135.5,177.8c-.9-1.3,2.7-2.4,2.7-1.3l-1.4,1.7c-.3,0-1.2-.3-1.3-.4Z" fill="#282752"/>
    <path d="M110.9,177.1l.2-1.2c1.3,0,1.8-1.4,2.7-1.8s4.3-1.2,4.5-1.2c.7,0,1.2.9,1.7,1.3,0,1.5-7.7,3.4-9.2,2.9Z" fill="#282752"/>
    <path d="M460.2,164.4c0,1.9-2.1,2.9-3.8,2.7-.2-2.5,1.6-3.7,3.8-2.7Z" fill="#282752"/>
    <path d="M214,68.2c-.2,2.3-2.6,2.6-4.2,1.3,1-1.4,2.6-1.9,4.2-1.3Z" fill="#282752"/>
  </g>
  <g id="first">
    <path d="M282.1,32.8l5-.4-1.5-2.1c-.2-.8.8-.7,1.3-.5.8.4,4.3,5.5,3.7,6.1-1.1,1.1-2-2.6-2.8-2.8l-4.5.3-1.2,2.7,2.7,2.3c.3.7-.4.7-.9.5-.7-.3-2.1-2-3.2-2.6s-1.7-.4-2.1-.6c-.5-.4,0-1.8-1.5-1.3.5-2.1,2.6-1.8,3.8-.4l-.4-6.9c1.6,1.1,1.3,4,1.5,5.8Z" fill="#282752"/>
    <path d="M400.5,28.6l1.5-2.3.4,4.2c-1.2.3-1.4-.5-1.9-1.4l-.6-.2c-1.9,1.9-8.3,4.7-10.8,4.3s-1.8-1.5-2.2-2.4-2-7.1,0-5.7c1,5.6.9,9.1,7.6,6.1.5-1.9,0-4.3,1.4-5.7l-.2,4.6c.9.2,2.5-.8,2.9-1.5.7-1.5-.6-5.4,2.1-2.8l-.3,2.9Z" fill="#282752"/>
    <path d="M438.6,22c0,.1-.7.2-.9.4-1.1,1.3-3.8,3.6-3.7,5.2,1.4,1.2,3.3-.1,5,.2.2,1-.8.9-1.2,1.4-.7,1.1-1.5,4-1,5.1,1.1,2.1,7.4.7,9.4.5s1.3-.5.4.4c-3.5.9-11.8,2.9-11.2-3.1s1.1-1.7.8-2.9c-1.2.3-2.8.1-3.5-1-1.4-2.1,4.2-5.8,4.3-7.9.9-.3,2,.6,1.5,1.5Z" fill="#282752"/>
    <path d="M254.3,27.9c1.2,3.2-4.6,3.6-4.2,6.9l3.9-.4v-1.8c0,0,1.9-.5,1.9-.5.5,1.1-1.2,2.6-1.1,3.2.1.9,3,4.7,4.6,3.7-.5,5.6-5.1-2.9-5.8-3.3s-3.9,1.6-4.6-.4,2.2-4.3,3.8-5.7l-1.5-.6v-1.2s3,0,3,0Z" fill="#282752"/>
    <path d="M314.2,19.9c1.6,1.8,1.8,8.2,3.2,10.7-3-3.3-1.5-9.6-6.3-11.2s-4.4,1.2-4.5,3.8,1.5,3.8,3.8,5,1-.1.8.9c-4.1-.8-7.4-4.1-6.1-8.6s1.4-2,1.6-2.1c1.7-1,6.2,0,7.5,1.6Z" fill="#282752"/>
    <path d="M362.5,38.2c.1.2,0,.9-.2,1.2-.7,1-1.6-.3-2.3-.4-4.5-.7-7.8.4-11.6-3.2s-.6-2.6-.6-4.3-.8-1.6-.9-2.2c-.3-1.3.4-2.2,1.4-.6s0,4.2.5,5.3,2.4,2.5,2.8,2.7c2.2,1.1,10.6,1.1,10.9,1.6Z" fill="#282752"/>
    <path d="M378.6,43.6c1.7-1.9,4.7.6,6.1-2.2s-1.8-3.7-1.9-4.2c-.4-1.6.3-4.5,0-6.4s-2.3-3.6-2.9-5.1c2.1-3.5,4,4.1,4,5.5s-.7,3.9-.2,5.3,3,.5,2.6,3.5c-.5,4.3-4.3,3.8-7.7,3.7Z" fill="#282752"/>
    <path d="M424.4,27.5c-.7.7,5.7,2.9,6.2,3.2s1.4.1,1.1.8-1.2.6-1.9.4-4.3-1.7-5.1-2.2-1.8-2-3-2.2l.2-.8c1.4.7,4.8-.3,5.4-1.5s-1.6-4.4-2.1-5.7-.3-1.1.5-.9c3.3,2.8,4.6,8.4-1.3,8.8Z" fill="#282752"/>
    <path d="M302.4,29.4c-.4,3,2.8,4.2,3.5,6.9l1.5-.4c-1.2,5-3.9-2.3-5.2-2.7h-.5c-.3,1.7-2.1,1.7-3.5,1.4s-2.3-1.9-3.3-3.3-1.6-.4-.7-1.6c2.6-.2,2.4,4.6,6.1,3.9s.3-2.8.6-4.2h1.5Z" fill="#282752"/>
    <path d="M440.3,19.6c1.1,1.1,2.9,1.8,4.5,1.7l-.2.8c-.8-.9-2,0-2.7,0s-3.6-2.7-3.9-3c-.7-.9-3.5-6.8-3.9-8s-.3-1.2-.1-1.9l1.2-.4c2,1,1,2.5,1.2,3.8s3.1,6.4,3.8,7.2Z" fill="#282752"/>
    <path d="M319.7,29.9c.2.2.9,2.8.9,3.2,0,1.1-.8,1.8-.7,2.2.2,1.3,3.4,4.4,4.7,4.9s3.3.5,4.3,1.1.7,1,0,1.1c-3.6.8-10.1-4.6-10.6-8.3l1.2-.4-1.2-4.4c.2-.2,1.3.3,1.4.5Z" fill="#282752"/>
    <path d="M455.2,26.9c-.4-2.7-3.7-6.9-3.9-8.8s0-.7.6-.6c2.8,3.1,5,7.3,4.4,11.7l-1.1,3.3c-.2-1.8.2-3.9,0-5.6Z" fill="#282752"/>
    <path d="M332,31.4c-.3-.3-2.2-.6-2.7-.4s-2.8,2-2.2,2.6h1.9c-.8,1.4-2.7,1.7-3.4.1-.4-1.6,3.7-4.6,5.1-4.4s3.6,3.6,4.3,5,0,1.1-.4,1.2c-1.4.3-2.2-3.7-2.6-4.1Z" fill="#282752"/>
    <path d="M402.5,14.8c1.3,2.9,1.8,6.8,3.4,9.5s4.1,3.8,4.3,6.7c-.9,0-1.4-.8-1.9-1.4-3.5-4.6-4.5-8.1-6.3-13.4s-.7,0-.7-.4l1.2-1Z" fill="#282752"/>
    <path d="M371.7,23.2c.2,2.2-.9,4.4-.2,6.6s4.7,6.3,6.7,6.1l-1,1.1c-1.1.2-6.5-5.6-6.9-6.9s0-4.4.3-5.9.1-1.3,1-1.1Z" fill="#282752"/>
    <path d="M235.8,31.2l-2,.5-5.2-.2c1,0,2-.9,2.9-1s2.8,1,3.2-.2-1.7-5.5-3.4-5.1c2.1-3,5.5,4.6,4.6,6.1Z" fill="#282752"/>
    <path d="M444.3,26c0,0-.6,0-.8-.5-1.1-2.3,1.9-2.2,2-1.3-1.2,1.6.2,3.4.6,5.5s.9,3.6,0,3.5-1.9-4.5-2-5.3.4-1.6.3-1.9Z" fill="#282752"/>
    <path d="M246.7,38.2c-2.1,0-1.7-1.7-2.5-3.1s-3-2.6-3.7-3.7.3-1.8,1.6-.8,4.2,4.6,4.5,5.8,0,1.1,0,1.6Z" fill="#282752"/>
    <path d="M338.5,29.5c1.1,1.1,1.1,5.7,2.8,7.2-3.5.2-3.1-4.8-4.2-7.1l.8-.4c.2.1.5.1.7.3Z" fill="#282752"/>
    <path d="M313.6,37.8l-1.3-.4c0-4.2-4-3.5-5.2-6.5,4.1.8,6.1,2.7,6.5,6.9Z" fill="#282752"/>
    <path d="M240.9,37.5c.4,1.6-2.5.1-3.1-.2-1.5-.8-2.7-2.4-4-3.3s-2.7-.4-3.3-1.9c4.8-.5,5.9,4.8,10.4,5.4Z" fill="#282752"/>
    <path d="M264.7,35.5c-2.9.4-2.3-2.9-3-4.8-.5-.7-1.9.4-1.6-1,4.1-1.2,2.9.9,3.6,3.5s.9,1.4,1,2.3Z" fill="#282752"/>
    <path d="M379.4,29.8c-.4.8-2.1,1.1-2.9,1.2s-2.5.2-3.3-.6c2-.8,4.1-.6,6.2-.6Z" fill="#282752"/>
  </g>
  <g id="from">
    <path d="M408.1,382.2c1.5,1.2,1,6.3.9,8.1-.1,4.8,0,8.4-3.5,12.3s-11.5,9.7-15.7,13.1-6.5,4.3-8.3,6.5-.7,1-.3,1.4c.9,1.2,8.5.4,10.2.2,13.6-2,32-6,45.1-9.9s2.1-1.5,1.4.3-4.3,1.6-5.7,2c-11.6,3.1-23.8,6.2-35.9,8.4s-9.1,2.4-13.2,1.8-3.8-1.3-3.9-1.5c-.6-1.6.8-2.7,1.8-3.7,6.8-6.7,25.8-16.4,26.6-26.1s-.4-3.1-.4-4.6c-.1-2.9,1.3-9.1-4-6.7-1.1.5-5.6,4.8-6.4,5.9-1.8,2.5-2,5.6-3.3,8.2s-1.4,1.4-1.6,2.2c-.4,1.6.3,9.5-1.1,10.1s-1.3-1-1.3-1.7c-.2-2.6.4-5.3.8-7.9-.3-.3-2,1-2.3,1.3-1.1,1.3-2.8,3.9-3.8,5-5.7,6.2-5.6-1.4-6.5-6-.6,0-.9,0-1.4.4s-2.4,2.4-2.7,2.7c-.5.6-.6,1.6-1.2,2.3s-1.8,1.5-2.1,1.7-.4.4-.9.3c-1.3-.4-2.6-9-4.8-9.6-.4.9-.2,2-.4,2.8s-.7.3-.8.5c-.1,1,.9,1.5,1,2.1s-.4.9-.4,1.4.7,2.9-.8,2.5-1.3-3.7-1.6-4.5c-.7-2.1-2.3-4.3-4.7-4.3l1.3-1.1c.6.5,2.6.7,2.8.8s1,2.7,1.8,3c1.8-1.3-.8-4.1,2.4-4.1s3.7,6.2,4.9,8c.3,0,2.5-1.8,2.9-2.1.8-.8,2.7-3.7,3.5-4.2s2.1.4,2.5,1.1c1,1.6.9,4.3,1.7,6.2s-.2.7.6.5c2.2-1.4,3.3-3.7,5-5.4s3.9-2.3,4.8-3.2c1.3-1.4,3.3-7.6,4.5-9.7s7.3-7.3,10.3-7.3,2.1.6,2.3.8Z" fill="#282752"/>
    <path d="M277.1,366.7c3.8-1.6,5.2-.5,6.1,3.2l-2.5,1.4c-.8-.8.4-2,.4-2.5,0-.9-1.2-1.8-2.1-1.3s0,3.2-2.1,2.6-.7-4-1.6-4.2c-2,1.5-5.3.4-6.5,2.3s-.6,1.9-1.5,2.6c-2.4.9-5.9-3.8-6.8-5.7-1.3-.2-1.3,1.4-1.9,2.1s-3,1.2-4,.6-1.8-2.3-1.9-2.4c-.6-1.1-.7-4.9.5-3.7s.5,4,2.3,4.8c2.9,1.4,2.2-3.3,4.6-3.6.2,1,1.4,1.5,2.1,2.3,1.3,1.4,2.2,3.5,4.2,4.2.3,0,2.2-2.3,2.3-2.7s-.2-1,0-1.5c.5-1.7,2.3-3.2,3.7-4.2l-1.9,4.4c.1,1.5,5-.8,5.6-1.7,1.2.7,1,1.8,1,3Z" fill="#282752"/>
    <path d="M353.3,398.6h.7c0,0,0,.8,0,.8-1.4-.3-1.5.8-1.5,1.9.6.6,3.9-2.7,3.8-1s-4,2.5-4.2,3.1c.7,4.2.7,11.1,3.6,14.3s4.3,0,6.7-.4c.8.7-3.8,2.8-4.2,2.9-2.3.4-3.8-1.6-4.7-3.4-2.4-4.4-2.7-9.7-3.1-14.6-.3-.8-1.3-.7-1.8-1.1-.7-.6-2.7-4-2.7-4.7,0-1.5,4.5-3,5.8-2.5s2,2.9,1.4,4.6ZM351.7,395.6c-.7.1-3.7.5-3.9,1-.6,2.7,1.6,2,2.9,4,1.1-1.5,1-3.2,1-5Z" fill="#282752"/>
    <path d="M335.8,403.8c-.2-.3-.8-.4-1.2-.9-1.3-1.8-1.8-4-3.5-5.3l-4.4,2.3c.7,3.1-5.3,8.3-6.8,3.8s-.3-1.6-.2-2.1,2.9-1.9,3.3-2.1c1.5-.7,3.2-.8,4.8-1.4s2.7-1.7,4-2.5,2,2.7,2.6,4,2.9,3.3,4,4.9c2.3,3.2,3,5.8,2.9,9.8s0,1.3-.6,1.7c-2-1.4-1.1-3.6-1.3-5.6s-2.2-4.6-3.6-6.6ZM325.5,400.6c-3.3-.2-5,.3-3.8,3.8,1.9-.7,3.6-1.7,3.8-3.8Z" fill="#282752"/>
    <path d="M235,358.4c1.7,2.1-2.3,5.8-1.8,6.4,2-.6,4.2-1.4,6.3-1.1s1.3.7,1.9.7c1.2,0,3-1.7,4,0,2.1,3.5-1,5.5-1.1.9l-2.3.2c-.8.6.5,4.5-3.2,5.7s-1.3.3-2.1-.2c-.9-2.9,0-3.9,2.2-5.5l-.6-.9c-1.4,0-6.6,3.2-7.1,1.3.3-2.3,4.1-4.3,2.1-6.7-1.6.6-3.1,1.4-4.5,2.3s-1.6,2.3-3,1.3c-2.2-1.5,2.3-2.2,2.7-2.4,1.3-.5,5.2-3.5,6.5-2ZM238.2,370.6c1,.8,3.2-4.7,1.7-5s-2.4,3.8-1.7,5Z" fill="#282752"/>
    <path d="M293.1,409.4l-1.3.9c-1.7-2.8-4.9,1-5.6,3.1,3.1.1,6-1,8.8-1.9.1-.7-.6-.2-.8-.4-1.5-1.1,0-2.2,1.8-1.2s4.9,6.1,5.7,6.4,1.6-.3,1.4.7c-.3.3-.8.7-1.1.8-1.4.4-4.6-4.5-5.7-5.6-2.4-.5-10.2,6-12,1.4,0-2.4,7.8-10.3,8.8-4.1Z" fill="#282752"/>
    <path d="M281,411.6c.5.6,1.8,1.5,2.6,1.7.2.3-1.3,1.6-2.2,1.1-1.9-2.8-4.5-4.2-3.7-8-2.5-.8-5.7-1.9-7.6-3.8s-5.4-6.9-7.6-8.7-2.1,0-2-1.3c1.2-.4,2.1-.2,3.1.6,2.4,1.7,5.4,7.2,7.9,9.4s4.5,2.8,7.1,2.9c.8,2.4.5,4.3,2.4,6.2Z" fill="#282752"/>
    <path d="M312.1,402.9c.5.5-4.2,4.8-1.3,5.7s2.3-.4,3.3-.2c1.4.2,2.6,3,3.2,4.2s1,5.2,2.9,5v.6c-.4.5-1.6,2.6-2.3,1.5-.3-1.7-2.7-9.7-4.4-9.8s-2.3.6-4-.3c-2.8-1.4-.6-7,2.6-6.7Z" fill="#282752"/>
    <path d="M259.8,412.8c-2.4-3.2,4.8-4.1,4.5-5.5s-5.7-4-6.8-4.7-1-.4-.9-1.2c.8,0,1.5-.1,2.3.2s4.3,2.8,4.8,3.3c4.9,4,1.3,9.2-3.9,8ZM263.2,411.8l1.5-3.1c-1.9,0-4,2.5-1.5,3.1Z" fill="#282752"/>
    <path d="M312.4,423.7c.8.6,3.5-2.5,5.3-1.5s.6,1.8,1.8,1.8,2.8-1.1,3.6-1.4.5-1,1.2,0l-2.2,1.7-3.1,1.6-2.6-2.3-5.3,2.3c-2.8-1.6.9-3.7,1.2-5.2s-.8-1.5-.7-2.4c3.9-.1,1.7,3.3.8,5.4Z" fill="#282752"/>
    <path d="M285.8,363.4c0,0,.8.9.8,1,.9,1.8,3.1,8.1,3.6,10.1s0,2.2.3,3.1c-.6,0-.7-.7-1-1.2-1.2-2.3-3.3-6.7-4-8.8s-.3-2.6-.4-2.8l-1.5.8c-.2-1.1,1-2.6,2.2-2.2Z" fill="#282752"/>
    <path d="M316.6,382.6l1.2,6.1-2.7-5.2c-1.4-.7-6,2.8-6.6,3.8s.3,2.3-.9,2.9-.2-1.9-1.7-1.2c-1.1-1,6-5.7,6.6-6.2s.3-.6.4-.6c.7-.3,3.2-.2,3.7.4Z" fill="#282752"/>
    <path d="M305.9,389.4v1.1c0,0,1.2,0,1.2,0-.6,2.1,0,3.3-2.3,4.4,0,.7,4.4,1.9,5.2,2.5s.7,1,0,1.2-5.1-1.9-5.7-2.4c-1.8-1.3-.3-1.9,0-3.3s-.5-3.4,1.6-3.6Z" fill="#282752"/>
    <path d="M272,406c0,0-1.2.5-1.7.3l-.2-.8c3.9-2.2,3.9,1.2,4.9,3.7s2.6,3.5.7,4.7c-1.7-1.6-1.7-4.3-2.4-6.1s-1.2-1.9-1.3-2Z" fill="#282752"/>
    <path d="M248,362.3c1.4,1.5,2.8,3.7,3.7,5.6-1,.9-5.5-4.5-4.2-6.2.5-.1.3.3.6.6Z" fill="#282752"/>
    <path d="M351.7,395.6c0,1.8.1,3.5-1,5-1.3-2-3.5-1.3-2.9-4s3.2-.9,3.9-1Z" fill="#282752"/>
    <path d="M325.5,400.6c-.2,2.1-2,3.2-3.8,3.8-1.2-3.5.6-4,3.8-3.8Z" fill="#282752"/>
    <path d="M238.2,370.6c-.7-1.2,0-5.4,1.7-5s-.7,5.8-1.7,5Z" fill="#282752"/>
    <path d="M263.2,411.8c-2.4-.6-.4-3.1,1.5-3.1l-1.5,3.1Z" fill="#282752"/>
  </g>
  <g id="to">
    <path d="M143.9,6.7c-3.1-3.7-5.8-7.4-11.2-5,.6,1.6-.4,2-1.5,2.9.3,1.7,2.7,1.2,3.3,2.1s0,2,.2,2.9c.5,2.6,4,5.8,5.7,7.7.2.9-.8.7-1.3.5-1.5-.6-5.1-5.5-5.6-7.1s0-1.5-.1-2.2-1.2-.8-1.6-1.4c-1.8-2.4-1.9-4.2.7-5.8,5-3.2,9.8.4,11.4,5.5Z" fill="#282752"/>
    <path d="M85.3,11.5c-.9,1.6-3.2.6-4.8,1.1s-2,1.5-1.9,2.5c1.5.9,3.5,0,4.6.2s4.8,1.9,4.6,2.7c-.4,1.9-3.6,1.8-4.8,2.1-1.6.5-2.6,2.2-4.4,2,0-1.9,2.4-1.5,3.6-2s1.1-1.1,1.7-1.4,1.9-.2,2.1-.8c-2.8-1-5.3-1.1-8.2-1.5-1.1-2.5.2-2.3.9-3.3s1.2-1.9,2-2.2,3.6,1,3.7,0-1.9-1.5-2.7-1.4v-1.5c2,.1,5,1.3,3.7,3.7Z" fill="#282752"/>
    <path d="M5.2,17c1.1.9,3.6.2,4.9,0,.2-.7-.6-.9-.7-1.4s.4-1.1.1-1.6-2-2-.4-1.5c2.2.6,2.2,6.4,3.6,8.4.4.7-1.1,2-1.5,1.6.6-1.6-.6-3.1-1-4.6l-5.5.4v1.5s-4.2-1.4-4.2-1.4c0-1.2,2.3-.8,2.7-.2,1-2.9-.1-5.1-1.1-7.7,3.5-.8,1.8,5.3,3.2,6.4Z" fill="#282752"/>
    <path d="M145.5,15.1c1.6.3,1.9-1.7,3.5-1.5.8-.7-2.3-1.1-.6-2.7s2.1,3.2,2.3,4.3.9,1.9,1,3.1l-7.3,1.5c.4-.9,2.2-2.1,3-2.2,1.4-.3,2,1.2,2.8.1l-1-2.5c-5.1,2.5-3.7,1.6-5.5-2.2s-2.7-3.9-1-3.2,2.7,3.9,2.9,5.4Z" fill="#282752"/>
    <path d="M55.1,16.3c1.2,1.7-.5,3-1.4,1.5s0-1.5-.2-1.9-2.5-.5-2.6-1.6c2.9-.4,5.8,1.8,8.8.8-1-1.1-1.4-1.9-1.2-3.5,2.1-.4,2.4,2,3.6,3.5s4.1,3.2,4,3.6c-.5,2.3-5.2-3.1-5.7-3.2-1-.2-4,1.3-5.5.7Z" fill="#282752"/>
    <path d="M21.2,2.4c.2-.7.7-.8,1.3-.8,3.9.1,5,5.6,6.3,8.3s4.4,8.1,5.7,12-.4,2.8-1.2.9c-2.4-5.3-4.6-12.7-7.5-17.5s-2.5-2.9-4.6-2.9Z" fill="#282752"/>
    <path d="M106,13.1c.4.7,2.5,2.2.8,3.6-1.7-1-2.5-1.8-3.5-3.5-1-.5-.4,1.9-.6,2.3-3,.9-1.2-1-1.7-1.5-1.7-.7-4-.8-4.5-3.1,1.6,0,2.6,1.5,4.1,1.8,3.7.8,2.5-3.2,3.8-5.3.9.9,0,1.9.3,3.2s.9,1.8,1.2,2.5Z" fill="#282752"/>
    <path d="M18.9,6.3c0,1.2-.1,2.6.3,3.7s1.4.5.8,1.3-.7-.2-.8.6c-.2,1.7,1.2,3.5-.3,5s-1.8.2-1.6,1.3c1.7.4,3,1.7,4.5,2.6s3.5.9,2.4,2-7.1-3.3-7.7-4,0-.9-.3-1.2-1.9,0-2.3-1.2c.9-.9,2.6.6,3.2.5,2.9-1.9.7-3.4.8-5.7s0-1.3-.2-2.9.5-3,1.2-2.1Z" fill="#282752"/>
    <path d="M115.2,17.3c-.8-.8-1.9-5.1-2.8-6.6-1.8-3.2-5.5-5.2-6.2-9,2,0,2.4,2.3,3.5,3.6s1.9,1.7,2.6,2.8c1.9,2.6,3,6.2,4.3,9.2-.4.7-1,.5-1.4,0Z" fill="#282752"/>
    <path d="M53.2,12.1c-.1,2.1-2.9,1.2-3.8,1.7s-1.5,2.2-1.5,2.6c.2,2.5,5.6,3.2,6.8,4.3s.2.5-.2.9c-2.3-1.2-5.5-.9-7.1-3.3s-.8-2.7.7-4.6.3-1.1.5-1.2c.7-.6,3.5-.5,4.5-.5Z" fill="#282752"/>
    <path d="M179,14.4c-.7,1.4-2.6.4-3.8,1s-1.1,1.5-1.8,1.6c-1.6.3-3.6-1.6-2.8-3.4l2.3.4c-.7.7-1.2,2.4.4,2.3l.6-3.8c-1-.8-3.3-2.1-2.9-3.6.7-2.3,1.5.9,1.5,1.1.6.9,1.5,1.1,2.1,1.8,1.4,1.9.4,3.3,4.4,2.7Z" fill="#282752"/>
    <path d="M157.1,13.7c-.2.2-.6.8-.3,1.1,2.3,1.7,4.2-.4,6.4-1.2.2,1-.3.7-.8,1-2.8,1.8-5.7,3.4-6.9-.9l4.2-2.9c-1.4-2.1-3.5-.9-5.8-1.9s-1,0-.8-.9c1.6.5,6.4.4,7.1,1.9,1,2.1-2.2,3-3.2,4Z" fill="#282752"/>
    <path d="M66.2,11.3c.9-.9,8.5,5.7,8.8,7.1-.4,2.3-4.5-2.7-5-3.1s-4.7-3.2-3.9-4Z" fill="#282752"/>
    <path d="M11.2,10.9c-2.6-2.1-5.7-3.6-8.3-5.8S-.5,2.3,0,1.7c2.2.2,3.3,2.3,4.8,3.5s7.2,4.8,6.3,5.8Z" fill="#282752"/>
    <path d="M185.9,17.5c0,.7-1.8.5-2.1.4-2.4-.4-3.1-3.7-3.3-5.8l-1.1.4-.4-2.3,2.9,2.3c.7,2.4.8,5.2,4.1,5Z" fill="#282752"/>
    <path d="M94.7,11.7l-1.5,4.7c.2.4.5.8,1,1,.7.2,2.2-.3,2.4.5-1.2.2-3.7,1-4.4-.4s.7-5.6,2.5-5.8Z" fill="#282752"/>
    <path d="M167.8,18.2c-.9,0-.8.3-1.2-.5-1.1-2-2-4.2-3.4-6,1.9-.6,4.9,6.2,4.6,6.5Z" fill="#282752"/>
    <path d="M187.2,23.4c.5.5,1.6,1.5,1.2,2.5-1.3-1.7-4-2.2-4.8-4.2,1.7,0,2.5.6,3.6,1.7Z" fill="#282752"/>
    <path d="M201.7,22.1v6c0,0-.9,1-1.2,1,.3-1.7-.2-4.4.2-6s0-1.1,1-1Z" fill="#282752"/>
  </g>
</svg>